<svg id="Layer_1" enable-background="new 0 0 512 512" height="512" viewBox="0 0 512 512" width="512" xmlns="http://www.w3.org/2000/svg"><g><path d="m136.003 71c13.268-.528 13.258-19.477 0-20h-.007c-13.268.53-13.251 19.479.007 20z"/><path d="m256.003 71c13.268-.528 13.258-19.477 0-20h-.007c-13.268.53-13.251 19.479.007 20z"/><path d="m376.003 71c13.268-.528 13.258-19.477 0-20h-.007c-13.268.53-13.251 19.479.007 20z"/><path d="m76.003 110.999c13.268-.528 13.258-19.477 0-20h-.007c-13.268.53-13.251 19.478.007 20z"/><path d="m196.003 110.999c13.268-.528 13.258-19.477 0-20h-.007c-13.268.53-13.251 19.478.007 20z"/><path d="m316.003 110.999c13.268-.528 13.258-19.477 0-20h-.007c-13.269.53-13.251 19.478.007 20z"/><path d="m436.003 110.999c13.268-.528 13.258-19.477 0-20h-.007c-13.269.53-13.251 19.478.007 20z"/><path d="m512 236c0-13.486-5.595-26.105-14.745-35.29 19.52-12.501 19.556-41.816.081-54.368 9.056-9.054 14.665-21.556 14.665-35.343-.001-60.654-49.347-109.999-110.001-109.999h-292c-60.654 0-110 49.345-110 110 0 13.787 5.609 26.288 14.665 35.342-19.484 12.559-19.43 41.874.079 54.367-19.535 18.927-19.467 51.908-.08 70.633-19.484 12.559-19.43 41.875.081 54.367-21.637 21.014-18.766 57.826 5.287 75.291-12.155 9.13-20.032 23.662-20.032 39.999v20c0 27.57 22.43 50 50 50h412c27.57 0 50-22.43 50-50v-20c0-16.338-7.877-30.87-20.032-40 24.06-17.473 26.917-54.283 5.286-75.29 19.52-12.5 19.556-41.816.081-54.368 9.056-9.053 14.665-21.554 14.665-35.341zm-462.001 30c-34.425-.819-41.331-47.656-8.885-58.644 2.932 1.053 5.389 2.648 8.289 4.531 16.531 12.177 39.104 12.147 55.592 0 5.264-3.417 9.066-5.887 16.904-5.887s11.641 2.469 16.904 5.887c16.531 12.177 39.104 12.148 55.592 0 5.263-3.417 9.066-5.887 16.904-5.887s11.641 2.469 16.904 5.887c16.531 12.177 39.104 12.147 55.592 0 5.264-3.417 9.066-5.887 16.904-5.887s11.641 2.469 16.904 5.887c16.53 12.176 39.104 12.148 55.591 0 5.264-3.417 9.066-5.887 16.904-5.887s11.641 2.469 16.904 5.887c16.531 12.177 39.104 12.148 55.592 0 2.9-1.883 5.357-3.478 8.289-4.531 32.468 11.005 25.518 57.833-8.883 58.644zm60.001-245h292c49.626 0 90 40.374 90 90 0 16.542-13.458 30-30 30h-412c-16.542 0-30-13.458-30-30 0-49.626 40.374-90 90-90zm369.5 140c16.575.684 16.583 24.313 0 25-13.762 0-21.543 5.053-27.796 9.113-5.264 3.418-9.066 5.887-16.904 5.887s-11.641-2.469-16.904-5.887c-16.531-12.177-39.104-12.147-55.592 0-5.263 3.417-9.066 5.887-16.904 5.887s-11.641-2.469-16.904-5.887c-16.531-12.177-39.104-12.147-55.592 0-5.264 3.418-9.067 5.887-16.904 5.887s-11.641-2.469-16.904-5.887c-16.565-12.187-39.095-12.142-55.592 0-5.264 3.418-9.066 5.887-16.904 5.887s-11.641-2.469-16.904-5.887c-16.531-12.177-39.104-12.147-55.592 0-5.264 3.418-9.067 5.887-16.905 5.887s-11.641-2.469-16.904-5.887c-6.253-4.06-14.034-9.113-27.796-9.113-16.569-.68-16.588-24.312 0-25zm-429.501 230c-34.425-.82-41.33-47.654-8.885-58.644 2.932 1.053 5.389 2.648 8.289 4.531 16.531 12.177 39.104 12.147 55.592 0 5.264-3.417 9.066-5.887 16.904-5.887s11.641 2.469 16.904 5.887c11.67 8.676 29.836 12.612 46.055 5.428l48.685 48.685zm257.772 31.8c-3.682 3.847-10.459 3.847-14.142 0l-90.573-90.573c2.299-.779 4.906-1.227 8.244-1.227 7.838 0 11.641 2.469 16.904 5.887 16.531 12.177 39.104 12.147 55.592 0 5.264-3.417 9.066-5.887 16.904-5.887s11.641 2.469 16.904 5.887c16.53 12.176 39.104 12.148 55.591 0 5.264-3.417 9.066-5.887 16.904-5.887 3.339 0 5.945.448 8.245 1.227zm184.229 38.2c0 16.542-13.458 30-30 30h-412c-16.542 0-30-13.458-30-30v-20c0-16.542 13.458-30 30-30h203.543l25.943 25.943c11.128 11.606 31.299 11.605 42.427 0l25.943-25.943h114.144c16.542 0 30 13.458 30 30zm-30-70h-94.144l48.685-48.685c16.248 7.194 34.408 3.229 46.054-5.428 2.9-1.883 5.356-3.478 8.289-4.531 32.467 11.005 25.517 57.833-8.884 58.644zm17.5-105c16.575.684 16.583 24.313 0 25-13.762 0-21.543 5.053-27.796 9.113-5.264 3.418-9.066 5.887-16.904 5.887s-11.641-2.469-16.904-5.887c-16.531-12.177-39.104-12.147-55.592 0-5.263 3.417-9.066 5.887-16.904 5.887s-11.641-2.469-16.904-5.887c-16.531-12.177-39.104-12.147-55.592 0-5.264 3.418-9.067 5.887-16.904 5.887s-11.641-2.469-16.904-5.887c-16.565-12.187-39.095-12.142-55.592 0-5.264 3.418-9.066 5.887-16.904 5.887s-11.641-2.469-16.904-5.887c-16.531-12.177-39.104-12.147-55.592 0-5.264 3.418-9.067 5.887-16.905 5.887s-11.641-2.469-16.904-5.887c-6.253-4.06-14.034-9.113-27.796-9.113-16.569-.68-16.588-24.312 0-25z"/></g></svg>