<svg id="Layer_1" enable-background="new 0 0 512.159 512.159" height="512" viewBox="0 0 512.159 512.159" width="512" xmlns="http://www.w3.org/2000/svg"><path d="m507.946 219.887c-6.825-29.92-21.939-59.148-44.924-86.873-37.109-41.34-12.934-112.911-75.339-130.62-36.567-9.8-57.219 12.603-77.191 34.266-14.737 15.985-29.975 32.514-53.365 41.184-92.887 32.99-147.872 118.948-111.794 208.519h-135.332c-5.523 0-10 4.477-10 10 0 45.47 14.617 59.312 34.848 78.47 10.931 10.352 23.321 22.084 37.556 42.16 28.354 39.988 63.476 68.904 101.568 83.621 89.422 35.286 183.053-13.891 219.489-101.255 82.839-20.073 134.197-98.211 114.484-179.472zm-136.858 66.476h-114.57c3.567-54.945 26.372-127.904 71.44-175.519 19.596-20.436 31.862-55.101 46.379-78.709 4.377-6.789 6.917-8.539 7.781-8.972.531.807 1.856 3.593 2.253 11.661.395 8.042-.258 18.363-.95 29.291-1.282 20.265-2.734 43.234 1.76 62.062 11.153 46.725 5.862 106.179-14.093 160.186zm-97.645 20c-11.831 50.553-82.314 50.517-94.124 0zm-114.455 0c2.142 14.612 8.949 28.075 19.646 38.587 39.455 38.977 107.171 16.151 115.14-38.587h46.076c-16.785 137.813-210.206 137.708-226.938 0zm3.341-119.136c15.224-39.763 51.359-71.949 101.75-90.629 27.889-10.339 45.542-29.486 61.117-46.38 12.057-13.078 21.207-22.521 31.186-27.102-4.586 7.425-9.083 16.491-13.786 25.975-8.398 16.933-17.917 36.125-29.164 48.007-48.827 51.587-73.367 130.413-76.95 189.267h-69.272c-15.397-32.054-17.161-67.064-4.881-99.138zm114.203 298.208c-66.954 21.329-137.165-8.582-187.813-80.009-15.372-21.679-29.093-34.673-40.119-45.114-17.19-16.279-26.651-25.236-28.329-53.948h72.569c3.749 68.013 65.29 125.255 133.542 123.909 68.245 1.347 129.799-55.899 133.539-123.91h33.517c-3.2 87.533-48.369 157.239-116.906 179.072zm209.026-190.47c-12.612 37.406-43.203 66.75-83.448 80.91 7.596-24.62 11.511-51.402 11.511-79.512 0-2.652-1.054-5.196-2.929-7.071s-4.419-2.929-7.071-2.929h-11.298c19.21-55.735 23.866-116.426 12.312-164.83-3.799-15.914-2.446-37.293-1.253-56.156.668-10.566 1.307-20.667 1.048-29.39 6.353 8.957 9.555 21.711 13.457 39.066 5.042 22.418 10.755 47.827 29.739 70.726 40.447 48.788 53.918 101.77 37.932 149.186z"/></svg>