<svg id="Layer_1" enable-background="new 0 0 512 512" height="512" viewBox="0 0 512 512" width="512" xmlns="http://www.w3.org/2000/svg"><g><path d="m485.558 237.06-39.558-128.563v-78.497c0-16.542-13.458-30-30-30h-320c-16.542 0-30 13.458-30 30v78.497l-39.558 128.563c-.293.953-.442 1.944-.442 2.941v262c0 5.523 4.477 10 10 10h440c5.522 0 10-4.477 10-10v-262c0-.997-.149-1.988-.442-2.941zm-402.172-117.06h45.921l-21.539 110.001h-58.229zm278.928 0 21.539 110.001h-255.705l21.538-110.001zm23.686 130.001v242h-260v-242zm18.232-20-21.539-110.001h45.922l33.846 110.001zm-318.232-200.001c0-5.514 4.486-10 10-10h320c5.514 0 10 4.486 10 10v70h-340zm-40 220.001h60v242h-60zm360 241.999v-242h60v242z"/><path d="m326 50h-140c-13.268.528-13.258 19.477 0 20h140c13.269-.529 13.258-19.476 0-20z"/><path d="m156 373.501c0 13.037 8.359 24.158 20 28.286v11.713c0 16.542 13.458 30 30 30h100c16.542 0 30-13.458 30-30v-11.714c26.562-9.477 26.473-47.247-.11-56.611-1.716-26.025-23.436-46.675-49.89-46.675h-60c-26.453 0-48.173 20.649-49.89 46.675-11.698 4.097-20.11 15.247-20.11 28.326zm150 49.999h-100c-5.514 0-10-4.486-10-10v-10h120v10c0 5.515-4.486 10-10 10zm-80-105h60c14.839 0 27.196 10.83 29.583 25h-119.166c2.387-14.17 14.744-25 29.583-25zm-40 45h140c13.269.551 13.26 19.454 0 20h-140c-13.27-.55-13.26-19.454 0-20z"/></g></svg>