<svg id="Layer_1" enable-background="new 0 0 511.692 511.692" height="512" viewBox="0 0 511.692 511.692" width="512" xmlns="http://www.w3.org/2000/svg"><g><path d="m375.847 101.692c0-5.523-4.478-10-10-10h-11.037c-3.803-18.137-17.71-32.411-35.641-36.74-11.732-73.309-114.977-73.238-126.651.024-17.792 4.384-31.77 18.781-35.616 36.716h-11.057c-5.522 0-10 4.477-10 10-.261 158.82 32.091 201.337 39.055 348.687l-4.494 36.384c-.745 6.034 1.149 11.963 5.335 16.698 4.558 5.155 11.396 8.232 18.295 8.232h123.62c6.897 0 13.736-3.078 18.294-8.232 4.186-4.734 6.08-10.665 5.335-16.698l-4.493-36.383c6.964-147.353 39.316-189.866 39.055-348.688zm-36.997 167.253c-7.729 0-11.359-1.763-16.384-4.202-14.793-8.263-35.467-8.25-50.237 0-5.024 2.439-8.655 4.202-16.384 4.202-7.728 0-11.358-1.763-16.383-4.202-14.791-8.27-35.511-8.237-50.237 0-5.074 2.676-10.755 4.645-18.423 4.156-4.046-22.719-7.75-45.964-10.459-72.518 13.781 3.395 28.568.255 37.616-4.828 5.025-2.439 8.655-4.202 16.384-4.202s11.359 1.763 16.384 4.202c14.79 8.253 35.424 8.263 50.237 0 5.024-2.439 8.655-4.202 16.384-4.202 7.728 0 11.358 1.763 16.383 4.202 9.073 5.1 23.884 8.216 37.617 4.827-2.709 26.555-6.413 49.8-10.459 72.519-.658.031-1.337.046-2.039.046zm14.433-94.444c-4.116 1.94-7.736 3.262-14.432 3.262-7.729 0-11.359-1.763-16.384-4.202-14.772-8.257-35.473-8.253-50.237 0-5.024 2.439-8.655 4.202-16.384 4.202-7.728 0-11.358-1.763-16.383-4.202-14.795-8.271-35.51-8.237-50.237 0-5.025 2.439-8.655 4.202-16.384 4.202-6.696 0-10.316-1.323-14.432-3.262-1.416-18.889-2.319-39.555-2.521-62.81h199.915c-.202 23.255-1.106 43.922-2.521 62.81zm-150.826-100.866c5.331-.276 9.493-4.738 9.482-10.057 2.434-58.2 85.315-58.212 87.813-.065-.073 5.371 4.112 9.844 9.482 10.122 11.413.59 20.955 7.886 24.797 18.056h-156.332c3.885-10.092 13.463-17.471 24.758-18.056zm118.509 416.578c-.782.885-2.112 1.479-3.31 1.479h-123.62c-1.198 0-2.528-.595-3.311-1.479-.238-.269-.512-.66-.47-1l3.511-28.429h124.158l3.51 28.429c.043.34-.231.731-.468 1zm15.239-195.707c-7.805 42.098-15.862 85.56-18.984 146.279h-122.749c-3.335-63.695-11.592-106.226-20.018-151.859 11.342-.285 18.061-3.547 23.507-6.19 5.025-2.439 8.655-4.202 16.384-4.202s11.359 1.763 16.384 4.202c14.75 8.252 35.48 8.255 50.237 0 5.024-2.439 8.655-4.202 16.384-4.202 7.728 0 11.358 1.763 16.383 4.202 5.446 2.644 12.166 5.906 23.508 6.19-.346 1.857-.691 3.716-1.036 5.58z"/><path d="m236.664 387.503h-.008c-5.522 0-9.996 4.477-9.996 10 .528 13.263 19.479 13.263 20.004 0 0-5.523-4.478-10-10-10z"/><path d="m286.672 320.503h-.008c-5.522 0-9.996 4.477-9.996 10 .528 13.263 19.479 13.263 20.004 0 0-5.523-4.478-10-10-10z"/><path d="m226.172 210.003h-.008c-5.522 0-9.996 4.477-9.996 10 .528 13.263 19.479 13.263 20.004 0 0-5.523-4.478-10-10-10z"/></g></svg>