<svg id="Layer_1" enable-background="new 0 0 512.001 512.001" height="512" viewBox="0 0 512.001 512.001" width="512" xmlns="http://www.w3.org/2000/svg"><g><path d="m169.978 432.002h-.008c-5.522 0-9.996 4.477-9.996 10 .528 13.263 19.479 13.263 20.004 0 0-5.523-4.477-10-10-10z"/><path d="m511.975 161.821v-35.143c0-1.658-.412-3.291-1.2-4.75l-34.801-64.477v-27.451c0-16.542-13.457-30-29.999-30h-169.144c-16.542 0-29.999 13.458-29.999 30v27.474l-34.801 64.477c-.788 1.459-1.2 3.092-1.2 4.75v35.143c0 13.387 5.857 25.431 15.144 33.705v136.471l-48.925-8.895-42.884-100.062c-1.575-3.677-5.191-6.061-9.191-6.061h-115.002c-13.268.529-13.258 19.476 0 20h108.407l12.857 30h-71.263c-5.522 0-10 4.477-10 10v55c0 5.523 4.478 10 10 10h109.097l100.903 18.346v21.653h-63.976c-20.733-13.194-51.316-13.193-72.048 0h-123.977c-13.268.529-13.258 19.476 0 20h102.584c-6.117 8.754-10.286 18.966-11.871 30h-90.713c-13.268.529-13.258 19.476 0 20h90.714c2.236 15.564 9.611 29.49 20.345 40h-111.059c-13.268.529-13.258 19.476 0 20h492.002c13.268-.529 13.258-19.476 0-20h-5.143v-296.475c9.286-8.274 15.143-20.318 15.143-33.705zm-281.144.022v-25.143h50.286v25.143c-1.386 33.365-48.913 33.338-50.286 0zm31.967-91.843h34.018l-12.998 46.7h-46.226zm197.222 0 25.206 46.7h-46.232l-12.998-46.7zm-38.331 91.832c-1.369 33.367-48.911 33.359-50.286.011v-25.143h50.286v25.122zm-120.572-25.132h50.286v25.143c-1.385 33.364-48.913 33.338-50.286 0zm104.119-66.7 12.998 46.7h-46.831v-46.7zm-53.833 46.7h-46.825l12.998-46.7h33.827zm-50.286 82.62c18.745 13.17 46.542 8.664 60.286-9.171 13.747 17.838 41.546 22.338 60.286 9.171v95.182h-120.572zm140.572-37.491c0-.003 0-.005 0-.007v-25.122h50.286v25.121c-1.385 33.356-48.891 33.341-50.286.015 0-.002 0-.004 0-.007zm-174.857-131.829c0-5.514 4.485-10 9.999-10h169.145c5.514 0 9.999 4.486 9.999 10v20h-189.143zm-196.858 257.002h69.835l15 35h-84.835zm169.288 145c-1.585-11.035-5.753-21.246-11.871-30h42.583v30zm-119.288 9.999c0-27.57 22.43-50 50-50 66.332 2.746 66.313 97.264 0 100-27.57 0-50-22.429-50-50zm98.943 50c10.734-10.509 18.109-24.436 20.345-40h40.713c5.522 0 10-4.477 10-10v-14.549h186.858v64.548h-257.916zm257.916-84.548h-186.859v-55.451c0-4.833-3.456-8.974-8.211-9.839l-35.789-6.507v-129.787c11.879 2.837 25.461.161 35.143-6.55v105.182c0 5.523 4.478 10 10 10h140.572c5.522 0 10-4.477 10-10v-105.207c9.681 6.713 23.266 9.391 35.144 6.553z"/></g></svg>