<svg id="Layer_1" enable-background="new 0 0 512.002 512.002" height="512" viewBox="0 0 512.002 512.002" width="512" xmlns="http://www.w3.org/2000/svg"><g><path d="m258.392 291.807c-.214-3.073-1.833-5.875-4.387-7.597-10.828-7.299-18.912-15.383-26.212-26.212-1.722-2.554-4.524-4.172-7.598-4.386-13.028-.907-24.072-3.866-35.809-9.596-2.769-1.35-6.005-1.352-8.772 0-11.737 5.728-22.781 8.687-35.808 9.594-3.073.214-5.876 1.833-7.598 4.387-7.298 10.829-15.383 18.913-26.212 26.213-2.554 1.722-4.172 4.524-4.387 7.598-.907 13.026-3.866 24.069-9.595 35.809-1.351 2.768-1.351 6.004 0 8.772 5.728 11.736 8.687 22.78 9.594 35.808.214 3.073 1.833 5.875 4.387 7.597 10.828 7.299 18.912 15.383 26.212 26.212 1.722 2.554 4.524 4.172 7.597 4.386 13.027.907 24.071 3.867 35.809 9.595 2.768 1.351 6.004 1.351 8.772 0 11.737-5.728 22.781-8.687 35.809-9.594 3.073-.214 5.875-1.833 7.597-4.387 7.299-10.828 15.383-18.912 26.212-26.212 2.554-1.722 4.172-4.524 4.386-7.597.907-13.027 3.867-24.071 9.595-35.809 1.351-2.768 1.351-6.004 0-8.772-5.726-11.736-8.685-22.78-9.592-35.809zm-19.531 74.18c-9.826 7.153-17.725 15.052-24.877 24.877-12.085 1.282-22.876 4.173-33.984 9.105-11.107-4.933-21.9-7.825-33.984-9.106-7.153-9.826-15.052-17.725-24.877-24.877-1.282-12.085-4.173-22.877-9.105-33.983 4.933-11.108 7.825-21.902 9.107-33.984 9.825-7.153 17.725-15.052 24.877-24.878 12.084-1.282 22.875-4.173 33.982-9.105 11.107 4.934 21.9 7.826 33.985 9.107 7.153 9.825 15.052 17.725 24.877 24.876 1.282 12.085 4.173 22.877 9.105 33.984-4.932 11.107-7.824 21.899-9.106 33.984z"/><path d="m501.304 148.041c-2.423-4.232-4.714-8.234-5.816-11.844-.852-3.678-.869-8.292-.886-13.171-.035-9.604-.079-21.556-6.71-33.018-6.62-11.491-16.949-17.505-25.249-22.337-4.215-2.454-8.201-4.774-10.96-7.35-2.576-2.76-4.897-6.746-7.351-10.961-4.833-8.3-10.847-18.629-22.321-25.24-11.478-6.641-23.431-6.685-33.036-6.72-4.876-.018-9.487-.035-13.165-.885-14.331-5.411-24.958-16.57-43.757-16.515h-.083c-13.24 0-23.601 5.931-31.927 10.698-4.232 2.423-8.234 4.714-11.844 5.816-3.678.852-8.292.868-13.17.886-9.604.035-21.557.079-33.018 6.71-16.355 9.359-19.972 24.338-29.688 36.209-2.76 2.576-6.746 4.897-10.962 7.351-8.299 4.833-18.629 10.847-25.239 22.321-6.641 11.478-6.685 23.43-6.719 33.034-.018 4.877-.035 9.489-.885 13.166-1.102 3.611-3.394 7.615-5.817 11.849-1.739 3.037-3.524 6.156-5.149 9.551-3.443 1.642-6.602 3.444-9.51 5.109-4.232 2.423-8.234 4.714-11.844 5.816-3.678.851-8.292.868-13.17.886-9.604.035-21.557.079-33.019 6.711-11.49 6.62-17.504 16.949-22.337 25.249-2.454 4.214-4.774 8.2-7.349 10.959-11.863 9.713-26.854 13.337-36.202 29.673-6.641 11.478-6.685 23.431-6.72 33.035-.018 4.876-.035 9.488-.885 13.165-5.416 14.343-16.588 24.977-16.515 43.799-.013 13.26 5.926 23.633 10.697 31.968 2.423 4.232 4.714 8.234 5.816 11.844.852 3.678.869 8.292.886 13.171.035 9.604.079 21.556 6.711 33.018 6.62 11.49 16.949 17.504 25.249 22.337 4.214 2.454 8.2 4.774 10.959 7.349 9.713 11.863 13.337 26.853 29.673 36.202 11.478 6.641 23.431 6.684 33.035 6.719 4.876.018 9.487.035 13.165.885 3.611 1.102 7.615 3.394 11.849 5.818 8.326 4.767 18.686 10.698 31.908 10.698h.083c13.24 0 23.602-5.931 31.927-10.698 4.232-2.422 8.234-4.714 11.844-5.816 3.678-.852 8.292-.869 13.171-.886 9.604-.035 21.556-.079 33.018-6.71 11.49-6.62 17.504-16.949 22.336-25.249 2.454-4.215 4.774-8.2 7.35-10.959 11.863-9.713 26.853-13.337 36.202-29.673 6.641-11.478 6.685-23.431 6.719-33.035.018-4.876.035-9.487.885-13.165 1.102-3.611 3.394-7.615 5.818-11.849 1.667-2.912 3.477-6.073 5.125-9.519 3.388-1.623 6.502-3.405 9.533-5.141 4.232-2.423 8.235-4.714 11.845-5.816 3.678-.851 8.292-.868 13.17-.886 9.604-.035 21.556-.079 33.017-6.71 11.491-6.62 17.505-16.949 22.337-25.249 2.454-4.215 4.774-8.2 7.349-10.959 11.863-9.713 26.853-13.337 36.202-29.673 6.641-11.478 6.685-23.43 6.719-33.034.018-4.876.035-9.488.885-13.166 1.102-3.611 3.394-7.615 5.818-11.85 4.771-8.335 10.71-18.708 10.697-31.95.015-13.26-5.923-23.633-10.695-31.968zm-169.359 205.983c-2.942 5.139-5.984 10.453-7.722 16.389-.043.148-.083.297-.12.447-3.506 13.52 1.38 28.93-5.544 41.15-3.959 6.872-10.771 10.838-17.982 15.037-5.117 2.979-10.407 6.06-14.88 10.331-.112.106-.221.215-.327.327-9.798 9.956-13.27 25.744-25.379 32.867-6.864 3.972-14.746 4-23.09 4.031-5.921.021-12.044.044-18.054 1.507-.149.037-.298.077-.446.12-5.932 1.738-11.243 4.779-16.379 7.719-7.235 4.142-14.069 8.055-22.009 8.055h-.045c-7.92 0-14.755-3.913-21.99-8.055-5.139-2.942-10.453-5.984-16.389-7.722-.148-.043-.297-.083-.447-.12-13.521-3.506-28.929 1.38-41.15-5.544-6.872-3.959-10.838-10.771-15.037-17.982-2.979-5.116-6.06-10.407-10.331-14.879-.106-.111-.215-.221-.327-.327-4.472-4.269-9.76-7.348-14.875-10.326-7.212-4.199-14.023-8.165-17.992-15.053-3.972-6.865-4.001-14.746-4.032-23.091-.021-5.921-.044-12.043-1.507-18.053-.037-.149-.077-.298-.12-.446-1.738-5.932-4.779-11.243-7.719-16.379-4.146-7.242-8.062-14.082-8.055-22.031-.007-7.931 3.909-14.771 8.055-22.014 2.942-5.139 5.984-10.452 7.722-16.388.043-.148.083-.297.12-.447 3.506-13.521-1.38-28.928 5.545-41.15 3.959-6.872 10.771-10.838 17.982-15.037 5.116-2.979 10.407-6.06 14.879-10.331.111-.106.221-.215.327-.327 9.798-9.955 13.271-25.744 25.378-32.866 6.865-3.972 14.747-4 23.092-4.031 5.92-.021 12.042-.044 18.051-1.506.15-.036.299-.076.447-.12 13.456-3.722 24.353-15.647 38.389-15.774 14.038.104 24.959 12.057 38.423 15.776.148.043.297.083.447.12 13.52 3.506 28.929-1.38 41.15 5.544 6.872 3.959 10.838 10.771 15.037 17.982 2.979 5.117 6.059 10.407 10.331 14.88.106.112.215.221.327.327 9.956 9.798 25.744 13.27 32.866 25.379 3.972 6.864 4 14.746 4.031 23.091.021 5.921.044 12.043 1.507 18.053.037.149.077.298.12.446 1.738 5.932 4.779 11.243 7.719 16.379 4.146 7.242 8.062 14.082 8.055 22.032.01 7.928-3.906 14.768-8.052 22.01zm3.944-112.014c-6.62-11.49-16.949-17.504-25.249-22.336-4.214-2.454-8.2-4.774-10.959-7.35-9.713-11.863-13.337-26.853-29.673-36.202-1.194-.691-2.394-1.31-3.595-1.866 3.507-9.137 5.668-18.243 6.728-28.24 9.826-7.153 17.725-15.052 24.877-24.878 12.084-1.282 22.875-4.173 33.982-9.105 11.108 4.933 21.9 7.825 33.985 9.107 7.153 9.825 15.052 17.725 24.877 24.876 1.282 12.086 4.174 22.878 9.105 33.984-4.933 11.108-7.825 21.9-9.106 33.984-9.825 7.152-17.725 15.052-24.877 24.877-9.999 1.06-19.104 3.221-28.238 6.727-.552-1.196-1.169-2.39-1.857-3.578zm148.058-39.987c-2.941 5.139-5.983 10.452-7.721 16.388-.043.148-.083.297-.12.447-1.46 6.006-1.483 12.125-1.505 18.043-.03 8.345-.059 16.227-4.04 23.107-3.959 6.872-10.771 10.838-17.982 15.037-5.117 2.979-10.407 6.059-14.88 10.33-.111.106-.221.216-.327.328-4.269 4.471-7.348 9.76-10.326 14.875-4.199 7.212-8.165 14.023-15.053 17.992-6.864 3.972-14.746 4-23.09 4.031-5.921.021-12.044.044-18.054 1.507-.149.037-.298.077-.446.12-3.716 1.089-7.187 2.688-10.525 4.454-.87-11.684-6.211-21.014-10.575-28.638-2.423-4.232-4.714-8.234-5.816-11.844-.852-3.678-.869-8.292-.886-13.171-.011-3.041-.023-6.317-.245-9.738 9.599-3.983 19.029-6.145 29.842-6.898 3.072-.214 5.875-1.833 7.597-4.386 7.3-10.829 15.384-18.913 26.212-26.212 2.554-1.722 4.173-4.524 4.387-7.598.907-13.027 3.866-24.071 9.595-35.809 1.351-2.768 1.351-6.004 0-8.772-5.727-11.736-8.687-22.78-9.594-35.81-.214-3.073-1.833-5.875-4.387-7.597-10.828-7.299-18.912-15.383-26.212-26.212-1.722-2.554-4.524-4.172-7.597-4.386-13.028-.907-24.072-3.866-35.81-9.595-2.768-1.351-6.004-1.351-8.772 0-11.737 5.728-22.781 8.687-35.808 9.594-3.073.214-5.876 1.833-7.598 4.387-7.299 10.829-15.383 18.913-26.212 26.213-2.554 1.722-4.173 4.524-4.387 7.598-.753 10.81-2.915 20.241-6.899 29.842-3.422-.222-6.698-.234-9.738-.245-4.876-.018-9.488-.035-13.165-.885-3.611-1.102-7.615-3.394-11.849-5.818-7.627-4.366-16.96-9.71-28.638-10.576 1.767-3.341 3.368-6.815 4.457-10.535.043-.147.083-.296.12-.446 1.46-6.006 1.483-12.125 1.505-18.043.03-8.345.059-16.227 4.04-23.107 3.959-6.872 10.771-10.838 17.982-15.037 5.116-2.979 10.407-6.06 14.879-10.331.111-.106.221-.215.327-.327 4.269-4.472 7.348-9.761 10.326-14.875 4.199-7.211 8.165-14.023 15.053-17.992 12.207-6.913 27.63-2.028 41.143-5.538.15-.037.299-.076.447-.12 13.456-3.722 24.353-15.647 38.389-15.774h.045c14.017.13 24.927 12.061 38.378 15.776.148.043.297.083.447.12 13.521 3.506 28.929-1.38 41.151 5.545 6.872 3.959 10.838 10.771 15.037 17.982 2.979 5.116 6.059 10.406 10.33 14.879.106.111.216.221.328.327 4.471 4.269 9.76 7.348 14.875 10.326 7.212 4.199 14.023 8.165 17.992 15.053 3.972 6.864 4 14.746 4.031 23.091.021 5.921.044 12.044 1.507 18.053.037.15.076.299.12.447 1.738 5.932 4.779 11.243 7.719 16.379 4.146 7.242 8.062 14.082 8.055 22.031.003 7.93-3.913 14.77-8.059 22.013z"/><path d="m116.733 242.001c13.268-.528 13.258-19.477 0-20h-.008c-13.268.53-13.25 19.479.008 20z"/><path d="m80 385.269c-5.523 0-10 4.477-10 10v.008c0 5.523 4.477 9.996 10 9.996 13.263-.528 13.262-19.48 0-20.004z"/><path d="m217.807 435.307c-5.334-1.419-10.816 1.75-12.239 7.086s1.75 10.816 7.086 12.239l.007.002c5.193 1.428 10.831-1.707 12.235-7.087 1.423-5.336-1.753-10.816-7.089-12.24z"/><path d="m303.786 318.887c-4.594-3.063-10.806-1.819-13.869 2.776-3.064 4.595-1.822 10.804 2.773 13.868 4.535 3.039 10.785 1.857 13.868-2.774l.003-.006c3.064-4.595 1.82-10.8-2.775-13.864z"/><path d="m269.766 75.361c-4.771-2.784-10.895-1.169-13.678 3.602s-1.171 10.894 3.599 13.676c4.687 2.757 10.878 1.215 13.676-3.599l.003-.006c2.783-4.771 1.171-10.891-3.6-13.673z"/><path d="m422.766 85.361c-4.771-2.784-10.895-1.169-13.678 3.602s-1.171 10.894 3.599 13.676c4.687 2.757 10.878 1.215 13.676-3.599l.003-.006c2.783-4.771 1.171-10.891-3.6-13.673z"/><path d="m420.274 250.678c-11.331-6.918-21.838 8.853-11.096 16.644 4.535 3.039 10.785 1.857 13.868-2.774l.003-.006c3.065-4.595 1.821-10.801-2.775-13.864z"/></g></svg>