<svg id="Layer_1" enable-background="new 0 0 512.001 512.001" height="512" viewBox="0 0 512.001 512.001" width="512" xmlns="http://www.w3.org/2000/svg"><g><path d="m462.001 126.167h-120v-30c0-16.542-13.458-30-30-30h-282.001c-16.542 0-30 13.458-30 30v280c0 5.523 4.477 10 10 10h40.713c13.299 79.583 125.308 79.525 138.575 0h133.426c13.299 79.583 125.307 79.525 138.575 0h40.712c5.523 0 10-4.477 10-10v-200c0-27.57-22.429-50-50-50zm30 130.001h-90v-60h90zm-30-110.001c16.542 0 30 13.458 30 30h-100c-5.523 0-10 4.477-10 10v80c0 5.523 4.477 10 10 10h100v40h-63.975c-20.733-13.194-51.316-13.193-72.048 0h-13.976v-170zm-139.287 220.001h-133.425c-1.585-11.035-5.753-21.246-11.871-30h157.167c-6.117 8.754-10.286 18.965-11.871 30zm-131.713-237.5h-40v-42.5h40zm-50.001 20h60c14.839 0 27.196 10.83 29.583 25h-119.166c2.388-14.17 14.745-25 29.583-25zm100.001 65h-140c-13.269-.551-13.26-19.454 0-20h140c13.27.551 13.259 19.454 0 20zm-130.001 20h120v10c0 5.514-4.486 10-10 10h-100c-5.514 0-10-4.486-10-10zm80.001 40v42.5h-34.976c-1.633-.984-3.309-1.903-5.025-2.754v-39.745h40.001zm131.001-177.5v220h-111.001v-42.5h10c16.542 0 30-13.458 30-30v-11.714c26.562-9.477 26.473-47.247-.11-56.611-1.495-22.658-18.15-41.24-39.89-45.67v-43.505h101.001c5.514 0 10 4.486 10 10zm-292.002-10h101v43.505c-21.741 4.43-38.396 23.013-39.89 45.671-26.599 9.375-26.655 47.144-.11 56.611v11.714c0 16.542 13.458 30 30 30h10v33.363c-16.111-2.683-33.682.918-47.024 9.137h-63.976v-220c0-5.515 4.486-10.001 10-10.001zm-10 250h42.583c-6.117 8.754-10.286 18.966-11.871 30h-30.712zm100 90c-27.57 0-50-22.43-50-50 2.746-66.332 97.264-66.312 100.001 0 0 27.57-22.43 50-50.001 50zm272.002 0c-27.57 0-50-22.43-50-50 2.746-66.332 97.264-66.313 100 0 0 27.57-22.43 50-50 50zm69.288-60c-1.585-11.035-5.753-21.246-11.871-30h42.583v30z"/><path d="m392.005 366.168h-.007c-5.523 0-9.997 4.477-9.997 10 .528 13.263 19.479 13.263 20.004 0 0-5.523-4.477-10-10-10z"/><path d="m120.004 366.168h-.007c-5.523 0-9.997 4.477-9.997 10 .528 13.263 19.479 13.263 20.004 0 0-5.523-4.477-10-10-10z"/></g></svg>