<svg id="Layer_1" enable-background="new 0 0 512.063 512.063" height="512" viewBox="0 0 512.063 512.063" width="512" xmlns="http://www.w3.org/2000/svg"><g><path d="m503.693 89.041c-36.748-76.592-124.394-89.305-210.326-69.936-134.222 32.24-253.142 85.879-287.651 209.485-22.375 90.862 24.371 179.799 80.626 227.635 45.671 39.126 107.458 53.217 165.604 39.885 42.271-9.512 72.804-30.074 93.343-62.859 18.074-28.85 26.735-63.468 35.905-100.12 2.476-9.894 5.035-20.125 7.794-30.243h-.001c15.148-55.562 50.551-78.894 78.998-97.642 39.685-22.78 55.153-71.261 35.708-116.205zm-40.669 95.502c-1.948 1.304-3.968 2.635-6.044 4.003-29.606 19.512-70.153 46.234-87.287 109.08-2.814 10.321-5.399 20.655-7.9 30.649-17.442 69.718-32.507 129.929-114.237 148.321-133.102 32.026-252.272-107.844-222.42-243.221 15.859-64.385 76.029-150.437 272.628-194.759 43.186-9.771 89.353-11.468 127.952 3.726 28.095 11.136 49.261 30.524 59.6 54.593 14.28 33.244 5.113 69.27-22.292 87.608z"/><path d="m440.988 86.045c-38.305-33.968-102.042-25.961-136.626-18.165-106.555 24.224-226.383 73.622-250.634 174.932-14.922 61.262 16.433 134.84 65.004 175.322 33.577 28.798 79.353 39.057 122.236 29.196 27.186-6.118 45.188-17.003 58.371-35.295 11.2-15.539 17.942-35.157 22.564-50.512 4.302-14.288 7.952-28.942 11.481-43.114 2.352-9.44 4.782-19.202 7.364-28.671 9.341-34.264 26.436-63.946 50.807-88.222 16.118-16.056 32.77-27.187 52.051-40.075l2.735-1.829c5.8-3.882 10.077-9.031 12.713-15.303 8.934-21.261-2.637-44.583-18.066-58.264zm-.372 50.515c-1.123 2.673-2.838 4.716-5.396 6.428l-2.728 1.824c-53 32.612-94.809 77.014-111.038 139.664 0 0 0 0-.001 0-2.639 9.682-5.097 19.553-7.475 29.098-3.472 13.941-7.062 28.357-11.225 42.182-4.173 13.861-10.176 31.455-19.639 44.584-10.254 14.227-24.171 22.444-46.537 27.478-38.543 8.672-75.792-.177-104.89-24.92-46.383-39.442-70.424-103.434-58.464-155.618 23.225-93.271 136.796-136.806 235.537-159.889 31.308-7.519 90.521-12.899 118.958 13.618 10.078 8.936 17.744 24.017 12.898 35.551z"/><path d="m204.337 264.896c-27.57 0-50 22.43-50 50 2.746 66.332 97.263 66.313 100 0-.001-27.57-22.43-50-50-50zm0 80c-16.542 0-30-13.458-30-30 1.648-39.799 58.358-39.788 60 0-.001 16.542-13.458 30-30 30z"/></g></svg>