<svg id="Layer_1" enable-background="new 0 0 512.001 512.001" height="512" viewBox="0 0 512.001 512.001" width="512" xmlns="http://www.w3.org/2000/svg"><path d="m512.001 336.001c0-5.523-4.478-10-10-10h-76.818l-39.387-192.009c-8.603-41.938-35.346-67.991-69.795-67.991h-120.001c-34.449 0-61.192 26.053-69.795 67.991l-39.387 192.009h-76.818c-5.522 0-10 4.477-10 10 0 29.345 21.177 53.838 49.05 58.999l-4.001 40.006c-.281 2.812.64 5.61 2.535 7.705 1.896 2.095 4.59 3.29 7.415 3.29h402.001c2.825 0 5.519-1.195 7.415-3.29s2.816-4.894 2.535-7.705l-3.999-40.006c27.873-5.161 49.05-29.654 49.05-58.999zm-316.001-250h120.001c29.148 0 45.046 26.867 50.203 52.009l10.469 51.037c-8.158 1.719-13.594 5.543-18.188 8.775-5.178 3.643-8.599 6.049-15.895 6.049-7.295 0-10.715-2.406-15.893-6.049-3.045-2.142-6.459-4.544-10.79-6.421l-3.132-41.159c-.42-5.508-5.229-9.635-10.73-9.212-5.507.419-9.632 5.223-9.213 10.73l2.778 36.508c-11.362.864-18.155 5.643-23.716 9.555-5.179 3.643-8.6 6.049-15.895 6.049s-10.716-2.406-15.894-6.049c-5.561-3.912-12.354-8.692-23.716-9.555l2.779-36.508c.419-5.507-3.706-10.311-9.213-10.73-5.518-.414-10.311 3.706-10.73 9.212l-3.133 41.16c-4.331 1.877-7.745 4.279-10.789 6.42-5.179 3.643-8.6 6.049-15.895 6.049s-10.716-2.406-15.894-6.049c-4.594-3.232-10.03-7.056-18.188-8.775l10.469-51.037c5.159-25.143 21.057-52.009 50.205-52.009zm-64.691 122.638c4.086.889 6.926 2.886 10.699 5.541 14.394 11.686 36.293 13.444 52.215 1.797l-3.129 41.115c-.419 5.507 3.706 10.311 9.213 10.73 5.432.438 10.33-3.693 10.729-9.212l3.836-50.401c5.862.439 9.09 2.709 13.726 5.971 16.325 12.968 38.52 12.937 54.803 0 4.637-3.262 7.865-5.532 13.727-5.971l3.836 50.401c.401 5.52 5.297 9.65 10.73 9.212 5.507-.419 9.632-5.223 9.213-10.73l-3.129-41.115c15.96 11.672 37.856 9.862 52.215-1.797 3.773-2.655 6.613-4.652 10.699-5.541l24.075 117.362h-297.533zm-65.259 217.361 3-30h373.901l3 30zm385.951-49.999h-392.001c-18.604 0-34.283-12.767-38.734-30h469.47c-4.452 17.233-20.131 30-38.735 30z"/></svg>