<svg id="Layer_1" enable-background="new 0 0 512 512" height="512" viewBox="0 0 512 512" width="512" xmlns="http://www.w3.org/2000/svg"><g><path d="m425.974 0h-360c-5.522 0-10 4.477-10 10v46h-10c-13.268.529-13.258 19.476 0 20h10v34.286h-10c-13.268.529-13.258 19.476 0 20h10v34.286h-10c-13.268.529-13.258 19.476 0 20h10v34.285h-10c-13.268.529-13.258 19.476 0 20h10v34.286h-10c-13.268.529-13.258 19.476 0 20h10v34.286h-10c-13.268.529-13.258 19.476 0 20h10v34.286h-10c-13.268.529-13.258 19.476 0 20h10v34.285h-10c-13.268.529-13.258 19.476 0 20h10v46c0 5.523 4.478 10 10 10h360c27.57 0 50-22.43 50-50v-412c0-27.57-22.43-50-50-50zm30 462c0 16.542-13.458 30-30 30h-350v-36h10c13.268-.529 13.258-19.476 0-20h-10v-34.286h10c13.268-.529 13.258-19.476 0-20h-10v-34.286h10c13.268-.529 13.258-19.476 0-20h-10v-34.286h10c13.268-.529 13.258-19.476 0-20h-10v-34.286h10c13.268-.529 13.258-19.476 0-20h-10v-34.285h10c13.268-.529 13.258-19.476 0-20h-10v-34.286h10c13.268-.529 13.258-19.476 0-20h-10v-34.285h10c13.268-.529 13.258-19.476 0-20h-10v-36h350c16.542 0 30 13.458 30 30z"/><path d="m415.975 50h-280.001c-5.522 0-10 4.477-10 10v392c0 5.523 4.478 10 10 10h280.001c5.522 0 10-4.477 10-10v-392c0-5.523-4.478-10-10-10zm-10 392h-260.001v-372h260.001z"/><path d="m195.974 230.786v11.715c0 16.542 13.458 30 30 30h100.001c16.542 0 30-13.458 30-30v-11.714c26.562-9.477 26.473-47.247-.11-56.611-1.717-26.026-23.437-46.675-49.89-46.675h-60.001c-26.453 0-48.174 20.649-49.89 46.676-26.598 9.374-26.655 47.142-.11 56.609zm130.001 21.714h-100.001c-5.514 0-10-4.486-10-10v-10h120.001v10c0 5.515-4.487 10-10 10zm20-40h-140c-13.27-.551-13.259-19.454 0-20h140c13.269.552 13.259 19.454 0 20zm-100.001-65h60.001c14.839 0 27.196 10.83 29.583 25h-119.167c2.387-14.17 14.744-25 29.583-25z"/><path d="m345.975 364.499h-140c-13.268.529-13.258 19.476 0 20h140c13.268-.529 13.257-19.476 0-20z"/><path d="m345.975 314.499h-140c-13.268.529-13.258 19.476 0 20h140c13.268-.529 13.257-19.476 0-20z"/></g></svg>