<svg id="Layer_1" enable-background="new 0 0 512.004 512.004" height="512" viewBox="0 0 512.004 512.004" width="512" xmlns="http://www.w3.org/2000/svg"><g><path d="m502.003 322.11h-108.07c1.697-3.956 2.639-8.303 2.639-12.857v-11.429c0-8.333-3.118-15.951-8.248-21.749 18.508-14.918 18.502-44.445.001-59.357 5.131-5.799 8.25-13.417 8.25-21.751 0-37.022-30.12-67.142-67.143-67.142h-146.859c-37.023 0-67.143 30.12-67.143 67.143 0 8.333 3.118 15.952 8.249 21.75-18.508 14.919-18.5 44.446.001 59.357-5.131 5.798-8.249 13.416-8.249 21.749v11.429c0 4.549.946 8.898 2.65 12.857h-108.08c-5.523 0-10 4.477-10 10 0 33.084 26.916 60 60 60h38.567c-13.31 9.833-24.633 23.416-34.188 40.926l-23.831 42.088c-4.495 8.084-4.492 17.858.007 25.507 4.188 7.121 11.591 11.373 19.802 11.372h83.571c14.628 0 20.283-2.97 27.504-14.447l6.332-10.062 46.549 2.22c35.607 1.7 46.969-.108 81.056-12.889 35.782-13.194 94.112-38.147 126.032-50.328.033-.011.066-.023.099-.035 14.477-5.232 22.286-19.872 18.165-34.053-.029-.1-.059-.2-.089-.3h2.426c33.084 0 60-26.916 60-60 0-5.522-4.477-9.999-10-9.999zm-77.26 85.529c-31.703 12.04-90.72 37.313-126.395 50.459-31.438 11.788-40.316 13.201-73.082 11.639l-52.38-2.498c-3.609-.165-7.02 1.61-8.94 4.663l-9.44 15.003c-2.095 3.33-2.978 4.264-3.349 4.46-.449.238-1.985.638-7.227.638h-83.58c-.421 0-1.671-.009-2.555-1.512-.351-.596-1.37-2.765.196-5.58l23.833-42.092c.026-.047.053-.094.079-.142 31.909-57.463 75.367-53.622 124.094-46.155 14.005 2.105 27.234 4.097 38.284 3.074 8.36-.767 60.944-6.382 69.687-7.192 1.729-.158 3.402.357 4.716 1.456 1.331 1.112 2.15 2.719 2.306 4.526.104 1.205.382 4.405-8.945 8.443-21.988 9.52-45.33 17.5-64.042 21.893-5.376 1.263-8.711 6.645-7.449 12.021 1.263 5.376 6.646 8.711 12.021 7.449 19.816-4.653 44.388-13.04 67.417-23.01 8.019-3.472 13.148-7.652 16.331-11.97l82.191-19.846c6.248-1.365 10.708.36 11.947 4.623.738 2.545.362 7.432-5.718 9.65zm-121.623-142.671 37.142-37.142h23.452c24.644 1.023 24.624 36.128 0 37.142zm-154.831 0c-24.643-1.023-24.625-36.128 0-37.142h23.452l37.142 37.142zm51.737-37.142h111.951l-47.908 47.909c-4.205 4.392-11.93 4.392-16.135 0zm-51.738-20c-7.089 0-12.857-5.768-12.857-12.857 0-25.995 21.148-47.143 47.143-47.143h146.856c25.995 0 47.143 21.148 47.143 47.142 0 7.09-5.768 12.858-12.857 12.858zm-.222 114.282c-6.966-.12-12.634-5.886-12.634-12.855v-11.429c0-7.089 5.768-12.857 12.857-12.857h80.594l4.909 4.909c11.65 12.151 32.77 12.15 44.42 0l4.909-4.909h80.594c7.089 0 12.856 5.768 12.856 12.857v11.429c0 7.016-5.706 12.783-12.719 12.856-.014 0-.028.001-.042.001h-215.679c-.022 0-.043-.001-.065-.002zm303.937 50.002h-392.002c-18.604 0-34.283-12.767-38.734-30h469.47c-4.451 17.233-20.13 30-38.734 30z"/><path d="m166.832 77.825c-2.762 4.783-1.123 10.899 3.66 13.66 4.698 2.737 10.883 1.167 13.66-3.66 13.667-23.671 6.078-37.833.537-48.175-4.583-8.553-7.108-13.265-.537-24.647 2.762-4.783 1.123-10.899-3.66-13.66-4.782-2.763-10.899-1.124-13.66 3.66-12.136 21.02-4.99 34.356.228 44.093 4.741 8.849 7.874 14.695-.228 28.729z"/><path d="m246.832 77.825c-2.762 4.783-1.123 10.899 3.66 13.66 4.698 2.737 10.883 1.167 13.66-3.66 13.667-23.671 6.078-37.833.537-48.175-4.583-8.553-7.108-13.265-.537-24.647 2.762-4.783 1.123-10.899-3.66-13.66-4.782-2.763-10.899-1.124-13.66 3.66-12.136 21.02-4.99 34.356.228 44.093 4.741 8.849 7.874 14.695-.228 28.729z"/><path d="m326.832 77.825c-2.762 4.783-1.123 10.899 3.66 13.66 4.698 2.737 10.883 1.167 13.66-3.66 13.667-23.671 6.078-37.833.537-48.175-4.583-8.553-7.108-13.265-.537-24.647 2.762-4.783 1.123-10.899-3.66-13.66-4.782-2.763-10.899-1.124-13.66 3.66-12.136 21.02-4.99 34.356.228 44.093 4.741 8.849 7.874 14.695-.228 28.729z"/></g></svg>