<svg id="Layer_1" enable-background="new 0 0 512 512" height="512" viewBox="0 0 512 512" width="512" xmlns="http://www.w3.org/2000/svg"><path d="m453.658 175.555c-1.9-2.254-4.698-3.556-7.646-3.556h-29.999v-101.999c0-5.523-4.478-10-10-10h-50.001v-20c0-5.523-4.478-10-10-10h-50v-20c0-5.523-4.478-10-10-10h-60.001c-5.523 0-10 4.477-10 10v20h-50c-5.523 0-10 4.477-10 10v20h-50c-5.523 0-10 4.477-10 10v102h-30c-6.018-.144-11.017 5.788-9.855 11.694l55 320c.825 4.799 4.986 8.306 9.855 8.306h269.999c4.869 0 9.03-3.507 9.855-8.306l55.001-320c.501-2.906-.307-5.884-2.208-8.139zm-57.645-95.555v92h-40.001v-92zm-223.365 115.978-12.901-48.147 38.637-10.353 29.469 109.978c-24.811-8.222-45.212-27.012-55.205-51.478zm109.349-104.19 39.349 7.186-26.313 144.078c-12.777 6.206-27.486 9.452-42.285 8.888zm54.015 38.202v73.267c-4.588 8.858-10.596 16.822-17.695 23.62zm0-79.99v31.405c-.403-.128-.815-.232-1.235-.308l-38.765-7.079v-24.018zm-60-30v50.364l-.259-.047c-5.433-.992-10.643 2.607-11.634 8.041l-24.673 135.094-3.435-12.819v-180.633zm-60.001 30v75.991l-.897-3.349c-.687-2.562-2.362-4.746-4.659-6.072-2.296-1.327-5.025-1.686-7.588-.999l-26.855 7.196v-72.767zm-100.001 30h40v48.126l-11.101 2.974c-5.216 1.288-8.564 7.086-7.071 12.248l7.679 28.652h-29.507zm280.238 332.5h-60.702c7.238-18.465 7.238-41.535 0-60h71.015zm-75.236-30c0 35.841-29.159 65-65 65-86.231-3.57-86.206-126.443 0-130 35.841 0 65 29.158 65 65zm-144.534 30h-60.702l-10.313-60h71.015c-7.238 18.465-7.238 41.535 0 60zm206.105 79.5h-253.143l-10.227-59.5h68.098c32.999 46.408 104.421 46.387 137.401 0h68.098zm27.415-159.5h-85.285c-32.998-46.408-104.422-46.388-137.402 0h-85.285l-24.149-140.5h72.28c31.078 106.027 180.669 105.965 211.709 0h72.281z"/></svg>