<svg id="Layer_1" enable-background="new 0 0 512.002 512.002" height="512" viewBox="0 0 512.002 512.002" width="512" xmlns="http://www.w3.org/2000/svg"><g><path d="m456 0h-359.999c-27.57 0-50 22.43-50 50v412.002c0 27.57 22.43 50 50 50h359.999c5.522 0 10-4.477 10-10v-492.002c0-5.523-4.477-10-10-10zm-10 412.002h-339.999v-392.002h339.999zm-379.999-362.002c0-13.037 8.36-24.159 20-28.286v391.294c-7.385 1.505-14.183 4.643-20 9.018zm30 442.002c-39.809-1.653-39.778-58.362 0-60h349.999v20h-349.999c-13.268.529-13.258 19.476 0 20h349.999v20z"/><path d="m136.001 392h280c5.522 0 10-4.477 10-10v-332c0-5.523-4.478-10-10-10h-280c-5.522 0-10 4.477-10 10v332c0 5.523 4.478 10 10 10zm10-331.999h260v312h-260z"/><path d="m355.891 190.176c-1.717-26.026-23.437-46.675-49.889-46.675h-60.002c-26.453 0-48.174 20.649-49.89 46.676-26.598 9.375-26.654 47.143-.11 56.61v11.715c0 16.542 13.458 30 30 30h100.001c16.542 0 29.999-13.458 29.999-30v-11.714c26.564-9.478 26.475-47.249-.109-56.612zm-109.891-26.675h60.001c14.838 0 27.195 10.83 29.582 25h-119.166c2.388-14.17 14.745-25 29.583-25zm80.001 104.999h-100.001c-5.514 0-10-4.486-10-10v-10h120v10c0 5.515-4.485 10-9.999 10zm20-40h-140c-13.269-.551-13.26-19.453 0-20h140c13.27.552 13.26 19.454 0 20z"/></g></svg>