<svg id="Layer_1" enable-background="new 0 0 512.002 512.002" height="512" viewBox="0 0 512.002 512.002" width="512" xmlns="http://www.w3.org/2000/svg"><g><path d="m341.595 180.992c-11.813-25.26-24.006-51.329-25.451-100.994 5.457-.076 9.857-4.523 9.857-9.998v-40c0-16.542-13.458-30-30-30h-80c-16.542 0-30 13.458-30 30v40c0 5.475 4.401 9.922 9.857 9.998-1.445 49.665-13.638 75.733-25.451 100.994-11.999 25.654-24.406 52.182-24.406 100.139v200.871c0 16.542 13.458 30 30 30h160c16.542 0 30-13.458 30-30v-200.871c0-47.957-12.407-74.485-24.406-100.139zm-175.594 103.096h180v157.914h-180zm49.863-204.088h80.273c.413 14.875 1.742 27.872 3.705 39.437-21.821 4.528-40.484 1.941-57.147-.368-10.393-1.44-20.389-2.826-30.093-2.334 1.72-10.879 2.881-23.007 3.262-36.735zm-9.863-50c0-5.514 4.486-10 10-10h80c5.514 0 10 4.486 10 10v30h-100zm-17.478 159.465c6.99-14.945 14.485-30.971 19.879-52.208 9.048-1.495 19.581-.036 31.546 1.623 10.328 1.432 21.995 3.049 35.022 3.048 9.036 0 18.727-.779 29.076-2.937 5.356 20.38 12.633 35.939 19.431 50.474 9.971 21.32 19.467 41.623 21.915 74.623h-178.784c2.449-33 11.944-53.303 21.915-74.623zm147.478 302.537h-160c-5.514 0-10-4.486-10-10v-20h180v20c0 5.514-4.486 10-10 10z"/><path d="m285.977 323.726c-7.16-4.85-12.747-6.609-17.671-6.989.054-.162.106-.309.156-.441 2.631-4.393 1.517-10.146-2.704-13.215-4.467-3.247-10.721-2.261-13.969 2.206-1.653 2.273-3.018 6.579-4.08 11.26-5.148-.371-11.061.594-19.67 5.879-34.402 20.58-33.634 71.958 1.015 91.845 10.052 5.636 14.872 6.051 23.391 5.079 2.602-.382 4.401-.391 7.022-.01 6.741.827 13.707 1.009 24.68-5.79 32.833-19.645 33.731-68.83 1.83-89.824zm-12.365 72.823c-5.896 3.654-7.841 3.416-11.708 2.94-3.201-.563-8.827-.538-11.949.017-3.688.462-5.371.674-10.815-2.506-21.719-12.466-22.186-44.639-.636-57.53 3.2-1.965 5.011-2.738 6.56-2.929 1.561 11.677 18.118 11.792 19.856.158 2.7-.224 4.995.303 9.84 3.585 19.995 13.161 19.423 43.957-1.148 56.265z"/></g></svg>