<svg id="Layer_1" enable-background="new 0 0 512.006 512.006" height="512" viewBox="0 0 512.006 512.006" width="512" xmlns="http://www.w3.org/2000/svg"><path d="m376.003 122.003c0-5.523-4.477-10-10-10h-.39c-3.036-37.649-23.271-54.669-39.533-66.925-5.957-18.549-23.6-36.07-45.098-44.401-4.32-1.673-9.223-.162-11.849 3.652-8.585 12.466-21.739 16.632-35.665 21.043-17.345 5.494-38.602 12.227-42.478 39.046-5.618.922-10.935 2.319-15.862 4.412-17.094 7.262-26.511 21.421-28.654 43.173h-.473c-5.523 0-10 4.477-10 10-.267 159.052 32.092 182.007 39.054 328.687l-4.493 36.383c-.745 6.034 1.15 11.964 5.335 16.698 4.557 5.155 11.396 8.232 18.294 8.232h123.62c13.073.23 25.543-11.636 23.629-24.931l-4.493-36.383c6.964-146.678 39.324-169.636 39.056-328.686zm-181.376 319.092c-1.303-25.182-3.463-46.717-6.106-66.025 4.706-1.212 8.301-2.939 11.422-4.439 4.848-2.33 8.351-4.013 15.8-4.013s10.951 1.683 15.798 4.013c14.396 7.968 34.569 7.948 48.925 0 4.847-2.33 8.349-4.013 15.798-4.013s10.952 1.683 15.8 4.013c3.121 1.5 6.716 3.227 11.422 4.439-2.644 19.307-4.803 40.842-6.106 66.025zm148.731-172.669c-1.805.371-4.013.624-6.834.624-7.449 0-10.951-1.683-15.798-4.013-14.396-7.968-34.568-7.947-48.924 0-4.847 2.33-8.349 4.013-15.798 4.013s-10.951-1.683-15.798-4.013c-14.397-7.967-34.567-7.947-48.924 0-4.848 2.33-8.35 4.013-15.799 4.013-2.821 0-5.029-.253-6.834-.624-3.886-20.801-7.309-42.901-9.61-69.51 13.747 4.853 30.577 2.375 40.907-3.423 4.848-2.33 8.35-4.013 15.798-4.013s10.951 1.683 15.798 4.013c14.396 7.968 34.569 7.948 48.925 0 4.847-2.33 8.349-4.013 15.798-4.013s10.951 1.683 15.798 4.013c10.353 5.81 27.184 8.268 40.907 3.423-2.303 26.609-5.726 48.709-9.612 69.51zm12.602-136.423c-.142 16.162-.627 30.856-1.391 44.4-.783.363-1.53.722-2.245 1.066-4.848 2.33-8.351 4.013-15.801 4.013-7.449 0-10.951-1.683-15.798-4.013-14.396-7.968-34.568-7.947-48.924 0-4.847 2.33-8.349 4.013-15.798 4.013s-10.951-1.683-15.798-4.013c-14.397-7.967-34.567-7.947-48.924 0-4.848 2.33-8.35 4.013-15.799 4.013-7.45 0-10.953-1.683-15.801-4.013-.714-.343-1.461-.702-2.244-1.065-.764-13.544-1.249-28.238-1.391-44.4h199.914zm-19.365 170.299c-3.465 16.802-6.98 33.842-10.1 52.814-1.933-.668-3.72-1.526-5.769-2.511-14.396-7.967-34.569-7.947-48.924.001-4.847 2.33-8.349 4.013-15.798 4.013s-10.951-1.683-15.798-4.013c-14.396-7.968-34.568-7.947-48.924-.001-2.049.985-3.836 1.843-5.769 2.511-3.947-23.966-8.327-43.96-12.832-66.128 11.376.823 21.944-3.03 27.265-5.925 4.848-2.33 8.35-4.013 15.798-4.013s10.951 1.683 15.798 4.013c14.396 7.968 34.569 7.948 48.925 0 4.847-2.33 8.349-4.013 15.798-4.013s10.951 1.683 15.798 4.013c5.303 2.892 15.905 6.752 27.265 5.925-.903 4.438-1.816 8.864-2.733 13.314zm-97.087-257.863c12.978-4.111 28.704-9.092 40.789-22.131 11.658 6.136 21.215 15.74 25.534 25.662-19.782 15.787-47.982 15.339-75.322 14.904-6.351-.099-12.5-.202-18.749-.091 3.189-10.093 11.984-13.351 27.748-18.344zm-9.316 38.432c29.412.465 62.427.99 87.63-18.87 14.874 11.843 25.467 24.098 27.73 48.001h-178.962c3.643-28.71 24.196-29.759 63.602-29.131zm90.931 407.652c-.782.885-2.113 1.48-3.31 1.48h-123.62c-1.198 0-2.528-.595-3.311-1.479-.237-.269-.511-.66-.469-1l3.511-28.428h124.158l3.511 28.428c.042.339-.232.73-.47.999z"/></svg>