<svg id="Layer_1" enable-background="new 0 0 512.096 512.096" height="512" viewBox="0 0 512.096 512.096" width="512" xmlns="http://www.w3.org/2000/svg"><g><path d="m500.32 94.365c-.757-1.31-1.548-2.593-2.365-3.853 5.949-5.863 10.288-13.247 12.472-21.398 6.734-25.132-8.233-51.058-33.367-57.793-6.195-1.66-12.652-2.038-18.947-1.131-5-3.932-10.779-6.833-16.974-8.494-24.365-7.071-51.735 8.732-57.792 33.367-2.324 8.674-2.123 17.684.482 26.106-20.539 10.983-36.669 30.096-43.144 54.318-14.416 53.799-42.95 103.149-82.517 142.717-39.568 39.567-88.919 68.102-142.711 82.515-23.397 6.236-42.994 21.737-54.349 43.139-8.415-2.599-17.416-2.797-26.083-.475-12.174 3.262-22.35 11.07-28.652 21.986s-7.977 23.632-4.714 35.806c1.659 6.194 4.561 11.975 8.494 16.974-.906 6.296-.529 12.753 1.131 18.946 3.262 12.175 11.07 22.351 21.986 28.653 10.937 6.325 23.716 7.964 35.807 4.714 8.151-2.184 15.535-6.523 21.399-12.472 1.26.817 2.543 1.607 3.852 2.365 20.193 11.695 43.794 14.738 66.13 8.75 167.913-43.677 304.938-180.705 348.614-348.617 6.01-22.489 2.901-45.973-8.752-66.123zm-97.653-54.127c1.879-7.014 6.378-12.877 12.667-16.508 6.289-3.63 13.615-4.596 20.63-2.716 4.618 1.238 8.832 3.667 12.184 7.025 2.528 2.533 6.217 3.521 9.674 2.592 4.582-1.231 9.445-1.229 14.063.008 14.48 3.88 23.104 18.818 19.225 33.298-1.106 4.127-3.186 7.899-5.994 11.047-10.467-10.036-23.342-17.34-37.74-21.187-15.228-4.069-30.611-3.825-44.846-.021-1.091-4.413-1.065-9.053.137-13.538zm-338.765 450.906c-7.015 1.879-14.342.914-20.63-2.716-6.289-3.631-10.788-9.494-12.667-16.509-1.237-4.617-1.24-9.48-.008-14.062.93-3.457-.059-7.146-2.592-9.675-3.358-3.352-5.787-7.564-7.024-12.183-1.879-7.014-.915-14.341 2.716-20.63s9.494-10.788 16.508-12.667c4.475-1.199 9.104-1.228 13.507-.144-7.948 28.37.595 61.565 21.239 82.593-3.15 2.808-6.922 4.888-11.049 5.993zm425.85-335.826c-41.905 161.103-173.363 292.562-334.462 334.467-34.679 10.036-73.608-12.475-82.205-47.538-9.559-35.769 11.767-72.647 47.544-82.207 57.185-15.323 109.636-45.646 151.683-87.693 42.046-42.047 72.37-94.499 87.693-151.683 0-.002.001-.005.002-.007 9.434-36.056 47.371-57.133 82.206-47.538 35.058 8.593 57.575 47.531 47.539 82.199z"/><path d="m312.077 286.416c-2.762-4.784-8.878-6.422-13.66-3.66-4.783 2.761-6.422 8.877-3.66 13.66l32.881 56.951c2.777 4.828 8.962 6.397 13.66 3.66 4.783-2.761 6.422-8.877 3.66-13.66z"/><path d="m373.946 206.861c-2.761-4.784-8.878-6.422-13.66-3.66-4.783 2.761-6.422 8.877-3.66 13.66l32.881 56.951c2.777 4.828 8.962 6.397 13.66 3.66 4.783-2.761 6.422-8.877 3.66-13.66z"/><path d="m239.17 344.245c-2.761-4.784-8.877-6.422-13.66-3.66-4.783 2.761-6.422 8.877-3.66 13.66l32.881 56.951c2.777 4.828 8.962 6.397 13.66 3.66 4.783-2.761 6.422-8.877 3.66-13.66z"/></g></svg>