<svg id="Layer_1" enable-background="new 0 0 512.002 512.002" height="512" viewBox="0 0 512.002 512.002" width="512" xmlns="http://www.w3.org/2000/svg"><g><path d="m210.967 151.43v-141.43c0-5.523-4.477-10-10-10h-60c-5.523 0-10 4.477-10 10v141.43c-30.587 15.203-50 46.132-50 80.572v270c0 5.523 4.477 10 10 10h160c5.523 0 10-4.477 10-10v-270c0-34.44-19.413-65.369-50-80.572zm-60-81.43h40v42.104l-20 12.748-20-12.749zm40-50v30h-40v-30zm-46.223 147.138c3.763-1.535 6.223-5.195 6.223-9.259v-22.056l14.625 9.323c3.278 2.09 7.472 2.09 10.75 0l14.625-9.322v22.057c0 4.064 2.46 7.725 6.223 9.259 23.443 9.562 39.573 30.48 43.066 54.864h-138.578c3.493-24.386 19.623-45.304 43.066-54.866zm-43.777 74.864h140v200h-140zm0 250v-30h140v30z"/><path d="m430.954 331.502-5-100c-.266-5.322-4.658-9.5-9.987-9.5h-110c-5.329 0-9.722 4.179-9.987 9.5l-5 100c-.89 17.792 5.61 34.939 18.304 48.283 11.106 11.676 25.912 19.234 41.684 21.5v90.717h-30c-13.268.529-13.258 19.476 0 20h80c13.268-.529 13.258-19.476 0-20h-30v-90.716c15.771-2.266 30.576-9.823 41.683-21.499 12.692-13.345 19.193-30.492 18.303-48.285zm-24.5-89.5 2.316 46.324c-36.076 7.628-58.887-5.375-95.688 1.606l2.397-47.93zm-8.296 124c-19.594 21.176-54.793 21.174-74.384-.001-8.881-9.335-13.434-21.232-12.82-33.5l1.097-21.946c18.255-4.119 32.714-2.729 47.944-1.266 15.062 1.448 30.561 2.938 49.786-.754l1.198 23.965c.614 12.269-3.94 24.166-12.821 33.502z"/><path d="m170.967 282.002c-22.056 0-40 17.944-40 40v40c2.204 53.078 77.816 53.038 80 0v-40c0-22.056-17.944-40-40-40zm20 80c-1.102 26.539-38.908 26.519-40 0v-40c0-11.028 8.972-20 20-20 11.028 0 20 8.972 20 20z"/></g></svg>