<svg id="Layer_1" enable-background="new 0 0 512.041 512.041" height="512" viewBox="0 0 512.041 512.041" width="512" xmlns="http://www.w3.org/2000/svg"><g><path d="m431.894 134.182c-1.717-26.026-23.437-46.675-49.89-46.675h-60.001c-26.453 0-48.173 20.649-49.89 46.675-26.599 9.375-26.655 47.144-.11 56.611v11.714c0 16.542 13.458 30 30 30h100c16.542 0 30-13.458 30-30v-11.714c26.562-9.477 26.474-47.248-.109-56.611zm-109.891-26.675h60.001c14.838 0 27.195 10.83 29.583 25h-119.167c2.388-14.171 14.745-25 29.583-25zm80.001 105h-100c-5.514 0-10-4.486-10-10v-10h120v10c0 5.514-4.486 10-10 10zm20-40h-140c-13.269-.551-13.26-19.454 0-20h140c13.269.55 13.259 19.454 0 20z"/><path d="m345.788 399.668c-3.242-2.619-41.112-33.211-50.42-40.329-5.817-4.449-15.012-10.086-27.636-7.692-12.622 2.394-25.493 12.385-39.351 30.542-8.029 10.521-16.396 15.952-25.58 16.601-18.563 1.319-39.823-17.092-56.286-33.297-16.205-16.463-34.61-37.725-33.297-56.286.65-9.184 6.08-17.551 16.601-25.58 18.158-13.857 28.148-26.729 30.543-39.351 2.395-12.624-3.243-21.818-7.692-27.636-7.118-9.308-37.713-47.183-40.329-50.421-8.255-11.083-21.62-16.036-36.71-13.593-28.787 4.66-57.192 33.608-69.076 70.396-9.161 28.358-8.665 60.35 1.433 92.516 29.364 89.881 139.552 196.841 238.501 196.438 48.734 1.721 105.877-32.077 112.892-75.599 2.444-15.089-2.51-28.454-13.593-36.709zm-74.328-28.371c3.867-.734 7.055.332 11.76 3.93 9.307 7.116 49.756 39.801 50.164 40.131.12.097.242.191.366.282 5.177 3.802 7.158 9.704 5.889 17.543-.735 4.54-2.548 9.441-5.368 14.409l-80.521-64.412c8.097-8.368 13.926-11.165 17.71-11.883zm-192.633-198.926c6.674-1.253 13.817.454 17.542 5.889.091.124.186.246.282.366.33.408 33.015 40.857 40.132 50.165 3.598 4.705 4.663 7.892 3.929 11.759-.72 3.795-3.532 9.649-11.96 17.785l-64.429-80.543c5.001-2.85 9.936-4.681 14.504-5.421zm204.01 314.052c-120.719 45.64-341.835-180.645-234.232-296.263l64.819 81.03c-40.243 34.416-13.246 77.125 18.895 108.391.036.037.072.073.109.109 20.675 20.359 45.377 40.914 71.784 39.051 13.586-.961 25.904-7.763 36.677-20.237l81.037 64.825c-9.602 9.392-22.809 17.835-39.089 23.094z"/><path d="m352.004.006c-121.698-1.057-200.286 135.026-138.712 239.782-3.958 14.751-7.916 29.503-11.875 44.28-2.028 7.612.11 15.458 5.72 20.986 5.53 5.45 13.576 7.544 21.017 5.473 14.688-3.936 29.373-7.875 44.058-11.815 104.785 61.589 240.851-17.027 239.79-138.707.001-88.223-71.774-159.999-159.998-159.999zm0 300c-25.868 0-51.139-7.113-73.081-20.57-2.343-1.439-5.181-1.844-7.819-1.134-16.059 4.309-32.118 8.617-48.179 12.921-.042.011-.085.023-.127.035-.748.211-1.296-.127-1.622-.449-.679-.668-.5-1.339-.437-1.579 4.32-16.121 8.641-32.227 12.962-48.333.712-2.652.302-5.479-1.134-7.82-57.236-91.595 11.295-214.015 119.437-213.071 185.72 7.685 185.683 272.335 0 280z"/></g></svg>