<svg id="Layer_1" enable-background="new 0 0 512.002 512.002" height="512" viewBox="0 0 512.002 512.002" width="512" xmlns="http://www.w3.org/2000/svg"><g><path d="m297.007 288.002c13.268-.528 13.258-19.477 0-20h-.007c-13.269.53-13.251 19.478.007 20z"/><path d="m482.002 0h-320c-16.542 0-30 13.458-30 30v102.002h-102.002c-16.542 0-30 13.458-30 30v320c0 16.542 13.458 30 30 30h220c71.682 0 130-58.318 130-130v-2.002h102.002c16.542 0 30-13.458 30-30v-320c0-16.542-13.458-30-30-30zm-462.002 482.002v-320c0-5.514 4.486-10 10-10h320c5.514 0 10 4.486 10 10v190c0 22.056-17.944 40-40 40h-30c-16.542 0-30 13.458-30 30v30c0 22.056-17.944 40-40 40h-190c-5.514 0-10-4.486-10-10zm245.657 8.889c8.94-10.481 14.344-24.065 14.344-38.889v-30c0-5.514 4.486-10 10-10h30c14.823 0 28.408-5.403 38.889-14.344-6.892 48.151-45.083 86.342-93.233 93.233zm226.345-140.891c0 5.514-4.486 10-10 10h-102.002v-197.998c0-16.542-13.458-30-30-30h-197.998v-102.002c0-5.514 4.486-10 10-10h320c5.514 0 10 4.486 10 10z"/><path d="m172.999 241.001c0-5.523-4.477-10-10-10h-.007c-5.523 0-9.997 4.477-9.997 10 .529 13.264 19.48 13.263 20.004 0z"/><path d="m170.999 351.002h-.007c-5.523 0-9.997 4.477-9.997 10 .528 13.263 19.479 13.263 20.004 0 0-5.523-4.477-10-10-10z"/><path d="m89.999 303.001c0-5.523-4.477-10-10-10h-.007c-5.523 0-9.997 4.477-9.997 10 .529 13.264 19.48 13.263 20.004 0z"/><path d="m92 427.002h-.008c-5.523 0-9.996 4.477-9.996 10 .528 13.263 19.479 13.263 20.004 0 0-5.523-4.477-10-10-10z"/><path d="m249.007 62.001h-.007c-5.523 0-9.997 4.477-9.997 10 .528 13.263 19.479 13.263 20.004 0 0-5.522-4.477-10-10-10z"/><path d="m395 69.001h-.007c-5.523 0-9.997 4.477-9.997 10 .528 13.263 19.479 13.263 20.004 0 0-5.522-4.477-10-10-10z"/><path d="m428 276.001h-.007c-5.523 0-9.997 4.477-9.997 10 .528 13.263 19.479 13.263 20.004 0 0-5.522-4.477-10-10-10z"/></g></svg>