<svg id="Layer_1" enable-background="new 0 0 511.949 511.949" height="512" viewBox="0 0 511.949 511.949" width="512" xmlns="http://www.w3.org/2000/svg"><g><path d="m335.349 174.175c-1.717-26.026-23.437-46.675-49.89-46.675h-60.001c-26.453 0-48.173 20.649-49.89 46.675-26.599 9.375-26.655 47.144-.11 56.611v11.714c0 16.542 13.458 30 30 30h100c16.542 0 30-13.458 30-30v-11.714c26.563-9.477 26.473-47.246-.109-56.611zm-109.891-26.675h60.001c14.839 0 27.196 10.83 29.583 25h-119.167c2.387-14.17 14.744-25 29.583-25zm80.001 105h-100c-5.514 0-10-4.486-10-10v-10h120v10c0 5.514-4.487 10-10 10zm20-40h-140c-13.27-.551-13.26-19.454 0-20h140c13.269.551 13.259 19.454 0 20z"/><path d="m455.459 200c0-110.28-89.72-200-200-200-244.436 7.188-272.424 348.317-35 396.933v105.069c.528 13.268 19.477 13.258 20 0v-102.56c9.884.742 20.117.742 30 0v102.56c.528 13.268 19.476 13.258 20 0v-105.069c93.651-16.598 165-98.59 165-196.933zm-200.001 180c-99.252 0-180-80.748-180-180 9.887-238.795 350.149-238.725 360 .001.001 99.251-80.747 179.999-180 179.999z"/><path d="m255.458 50c-82.71 0-150 67.29-150 150 8.239 198.996 291.791 198.937 300.001-.001 0-82.709-67.29-149.999-150.001-149.999zm0 280c-71.682 0-130-58.318-130-130 7.141-172.464 252.886-172.413 260.001.001 0 71.681-58.319 129.999-130.001 129.999z"/></g></svg>