<svg id="Layer_1" enable-background="new 0 0 512.002 512.002" height="512" viewBox="0 0 512.002 512.002" width="512" xmlns="http://www.w3.org/2000/svg"><g><path d="m256.002.662c-141.16 0-256.002 114.842-256.002 256.001 14.062 339.619 497.992 339.522 512.002-.002 0-141.157-114.841-255.999-256-255.999zm0 492.002c-130.132 0-236.002-105.87-236.002-236.001 12.963-313.087 459.086-312.998 472.002.002 0 130.129-105.869 235.999-236 235.999z"/><path d="m256.002 50.662c-113.589 0-206.001 92.412-206.001 206.001 11.316 273.288 400.728 273.209 412.002-.002 0-113.587-92.412-205.999-206.001-205.999zm0 392.002c-102.562 0-186.001-83.44-186.001-186.001 10.217-246.755 361.822-246.684 372.002.002 0 102.559-83.44 185.999-186.001 185.999z"/><path d="m400.299 227.568c-1.042-2.981-2.025-5.798-2.833-8.81-.807-3.013-1.363-5.944-1.952-9.047-2.949-20.178-13.12-37.769-29.092-50.391-2.394-2.062-4.654-4.01-6.86-6.216v-.001c-2.207-2.206-4.154-4.467-6.217-6.86-12.643-16-30.251-26.148-50.391-29.093-3.104-.589-6.034-1.145-9.048-1.953-3.014-.807-5.831-1.791-8.813-2.833-18.95-7.534-39.266-7.521-58.183 0-2.982 1.042-5.8 2.026-8.813 2.833-3.014.807-5.944 1.363-9.048 1.952-7.963 1.511-16.988 3.224-28.048 9.609-11.059 6.384-17.055 13.344-22.344 19.485-2.062 2.393-4.009 4.653-6.215 6.859-2.206 2.207-4.467 4.154-6.86 6.216-15.988 12.627-26.154 30.257-29.093 50.392-.589 3.103-1.146 6.034-1.952 9.046-.808 3.014-1.791 5.83-2.833 8.812-7.533 18.927-7.524 39.282 0 58.188 1.041 2.982 2.025 5.799 2.833 8.812.807 3.013 1.363 5.944 1.952 9.047 2.949 20.177 13.12 37.769 29.091 50.39 2.394 2.062 4.655 4.01 6.861 6.217 2.207 2.206 4.154 4.467 6.216 6.86 5.29 6.14 11.286 13.099 22.344 19.483 11.059 6.385 20.084 8.098 28.047 9.609 3.104.589 6.035 1.145 9.049 1.952 3.014.808 5.83 1.792 8.812 2.833 18.951 7.536 39.269 7.521 58.186 0 2.981-1.042 5.799-2.026 8.812-2.833 3.014-.807 5.945-1.363 9.049-1.952 7.963-1.511 16.988-3.224 28.047-9.609s17.055-13.344 22.344-19.485c2.062-2.393 4.009-4.653 6.215-6.859 9.696-9.413 17.649-13.66 26.345-28.56 6.385-11.059 8.098-20.084 9.608-28.047.589-3.103 1.146-6.034 1.952-9.047.808-3.013 1.791-5.83 2.833-8.812 7.534-18.949 7.52-39.271-.001-58.187zm-18.882 51.594c-1.116 3.195-2.27 6.5-3.27 10.23s-1.652 7.169-2.283 10.495c-1.391 7.327-2.591 13.655-7.279 21.776-4.688 8.12-9.567 12.324-15.218 17.191-2.564 2.209-5.218 4.495-7.949 7.227-2.731 2.731-5.016 5.383-7.225 7.947-4.867 5.65-9.071 10.53-17.191 15.218-8.121 4.688-14.448 5.889-21.775 7.279-3.326.631-6.765 1.284-10.496 2.284s-7.036 2.154-10.232 3.271c-15.312 6.073-29.695 6.067-44.993 0-3.196-1.116-6.501-2.271-10.232-3.271s-7.17-1.652-10.496-2.284c-16.298-2.397-28.751-9.593-38.966-22.497-2.21-2.565-4.495-5.217-7.227-7.948-2.731-2.732-5.385-5.017-7.949-7.228-5.649-4.867-10.529-9.07-15.217-17.19-4.688-8.121-5.889-14.449-7.279-21.776-.631-3.326-1.283-6.764-2.283-10.495s-2.154-7.036-3.271-10.231c-6.074-15.313-6.068-29.697 0-44.996 1.116-3.196 2.271-6.5 3.271-10.231s1.652-7.169 2.283-10.495c1.391-7.327 2.591-13.655 7.279-21.776 4.688-8.12 9.567-12.323 15.218-17.191 2.565-2.21 5.218-4.495 7.949-7.227 8.669-8.651 12.645-16.41 24.416-23.166 8.121-4.688 14.449-5.89 21.776-7.28 3.325-.631 6.765-1.284 10.495-2.284 3.731-1 7.037-2.154 10.233-3.271 15.314-6.073 29.693-6.066 44.992 0 3.195 1.117 6.501 2.271 10.232 3.271 3.73 1 7.17 1.652 10.495 2.284 16.299 2.397 28.751 9.594 38.968 22.498 2.209 2.565 4.494 5.217 7.226 7.948 2.731 2.732 5.384 5.017 7.949 7.227 12.917 10.227 20.1 22.684 22.496 38.967.631 3.326 1.283 6.764 2.283 10.495 1 3.73 2.153 7.034 3.27 10.229 6.074 15.316 6.068 29.7 0 45z"/><path d="m263.073 172.595c-3.906-3.905-10.236-3.905-14.143 0l-76.997 76.997c-3.905 3.905-3.905 10.237 0 14.143 3.906 3.905 10.237 3.905 14.143 0l76.997-76.997c3.906-3.906 3.906-10.238 0-14.143z"/><path d="m301.571 211.093c-3.905-3.904-10.237-3.905-14.143 0l-76.997 76.997c-3.905 3.905-3.905 10.237 0 14.143 3.906 3.905 10.237 3.905 14.143 0l76.997-76.997c3.906-3.905 3.906-10.237 0-14.143z"/><path d="m325.927 249.591-76.997 76.997c-3.905 3.905-3.905 10.237 0 14.143 3.906 3.905 10.237 3.905 14.143 0l76.997-76.997c3.905-3.905 3.905-10.237 0-14.143-3.907-3.905-10.237-3.905-14.143 0z"/></g></svg>