<svg id="Layer_1" enable-background="new 0 0 511.918 511.918" height="512" viewBox="0 0 511.918 511.918" width="512" xmlns="http://www.w3.org/2000/svg"><g><path d="m481.918 52.108h-290c-16.542 0-30 13.458-30 30v163.417h-89.147c-37.022 0-67.143 30.12-67.143 67.143 0 8.333 3.118 15.952 8.249 21.75-18.508 14.919-18.5 44.447.001 59.358-5.13 5.798-8.248 13.416-8.248 21.749v11.429c0 18.117 14.739 32.857 32.856 32.857h215.426c18.117 0 32.856-14.74 32.856-32.857v-11.429c0-8.332-3.118-15.95-8.248-21.749 18.509-14.918 18.502-44.446.001-59.358 10.538-11.352 9.48-28.258 5.002-42.31h198.394c16.542 0 30-13.458 30-30v-180c.001-16.542-13.457-30-29.999-30zm-300 70h310v30h-310zm10-50h290c5.514 0 10 4.486 10 10v20h-310v-20c0-5.514 4.486-10 10-10zm-129.978 273.417 37.142 37.142h-60.595c-24.644-1.023-24.624-36.128 0-37.142zm191.973 0c24.643 1.023 24.625 36.128 0 37.142h-60.594l37.142-37.142zm-99.646 47.909c-4.204 4.392-11.931 4.392-16.135 0l-47.908-47.908h111.951zm112.502 22.09v11.429c0 7.089-5.768 12.857-12.856 12.857h-215.426c-7.089 0-12.856-5.768-12.856-12.857v-11.429c0-7.089 5.768-12.857 12.856-12.857h80.595l4.908 4.908c11.651 12.152 32.769 12.151 44.42 0l4.909-4.909h80.594c7.089.001 12.856 5.769 12.856 12.858zm.002-102.856c0 7.09-5.768 12.857-12.857 12.857h-215.428c-7.09 0-12.857-5.768-12.857-12.857 0-25.995 21.148-47.143 47.143-47.143h89.34c1.701 14.939 14.42 26.583 29.807 26.583h70.098c3.155 6.439 4.754 13.35 4.754 20.56zm215.147-40.56h-290c-5.514 0-10-4.486-10-10v-90h310v90c0 5.514-4.487 10-10 10z"/><path d="m451.918 222.107h-115c-13.268.529-13.258 19.476 0 20h115c13.268-.528 13.258-19.476 0-20z"/></g></svg>