<svg id="Layer_1" enable-background="new 0 0 511.881 511.881" height="512" viewBox="0 0 511.881 511.881" width="512" xmlns="http://www.w3.org/2000/svg"><g><path d="m189.94 208.806c-3.905-3.904-10.237-3.904-14.143 0-3.905 3.905-3.905 10.237 0 14.143l113.137 113.137c3.906 3.905 10.237 3.905 14.143 0 3.905-3.905 3.905-10.237 0-14.143z"/><path d="m140.442 258.303c-3.905-3.904-10.237-3.904-14.143 0-3.905 3.905-3.905 10.237 0 14.143l113.137 113.138c3.906 3.906 10.237 3.904 14.143 0 3.905-3.905 3.905-10.237 0-14.143z"/><path d="m90.945 307.801c-3.905-3.904-10.237-3.904-14.143 0-3.905 3.905-3.905 10.237 0 14.143l113.138 113.136c3.906 3.905 10.237 3.905 14.143 0 3.905-3.905 3.905-10.237 0-14.143z"/><path d="m504.77 153.477c-1.357-3.886-2.639-7.556-3.705-11.531-4.242-16.773-3.869-28.388-14.579-47.004-7.966-13.798-16.341-21.014-24.441-27.992-3.119-2.687-6.064-5.224-8.976-8.136-2.912-2.911-5.449-5.856-8.136-8.976-6.978-8.1-14.194-16.476-27.992-24.441-13.798-7.967-24.659-10.027-35.163-12.021-4.044-.768-7.864-1.493-11.842-2.559-3.978-1.065-7.648-2.348-11.534-3.705-23.802-9.488-49.144-9.478-72.924 0-7.622 2.819-15.365 4.893-23.375 6.264-10.504 1.993-21.365 4.054-35.163 12.021-13.798 7.966-21.014 16.342-27.992 24.441-2.687 3.119-5.224 6.064-8.136 8.976s-5.857 5.449-8.976 8.137c-8.1 6.978-16.476 14.193-24.441 27.991-7.966 13.798-10.028 24.659-12.021 35.163-.767 4.044-1.492 7.863-2.558 11.841-.061.227-.124.456-.187.687-.228.063-.457.126-.687.187-3.978 1.065-7.797 1.791-11.841 2.559-10.503 1.993-21.365 4.054-35.162 12.021-13.798 7.966-21.014 16.342-27.992 24.441-5.191 6.253-10.858 11.918-17.11 17.11-8.101 6.978-16.477 14.193-24.443 27.992-7.967 13.799-10.028 24.66-12.021 35.164-1.37 8.01-3.444 15.75-6.262 23.372-9.492 23.779-9.471 49.199.001 72.93 1.356 3.885 2.638 7.555 3.704 11.53 1.065 3.978 1.79 7.797 2.558 11.841 1.993 10.504 4.054 21.365 12.021 35.163 7.966 13.799 16.343 21.016 24.443 27.994 3.118 2.686 6.063 5.223 8.974 8.134 2.912 2.911 5.449 5.856 8.136 8.976 6.978 8.1 14.194 16.476 27.992 24.441 13.797 7.967 24.659 10.027 35.162 12.021 4.044.768 7.864 1.493 11.841 2.559 3.977 1.065 7.646 2.348 11.531 3.704 23.753 9.487 49.214 9.473 72.93 0 3.885-1.356 7.555-2.639 11.531-3.704 3.978-1.065 7.797-1.791 11.842-2.559 10.503-1.993 21.365-4.054 35.163-12.021 13.798-7.966 21.014-16.342 27.992-24.441 5.191-6.252 10.858-11.919 17.109-17.109 8.101-6.979 16.477-14.194 24.443-27.994 7.967-13.798 10.028-24.659 12.021-35.163.768-4.044 1.492-7.863 2.558-11.84.062-.23.124-.459.188-.688.23-.064.459-.126.687-.187 3.977-1.065 7.795-1.79 11.838-2.557 10.505-1.994 21.367-4.055 35.166-12.022 13.798-7.966 21.014-16.341 27.992-24.441 2.687-3.118 5.224-6.063 8.136-8.975 2.911-2.911 5.856-5.449 8.975-8.136 20.108-15.847 32.802-37.873 36.463-63.159.768-4.043 1.493-7.862 2.558-11.838 1.066-3.977 2.348-7.646 3.705-11.532 9.486-23.756 9.471-49.211-.001-72.929zm-157.914 224.573c-3.141 21.484-12.851 38.285-29.869 51.734-3.257 2.806-6.625 5.708-10.062 9.144-3.437 3.438-6.339 6.806-9.146 10.063-6.428 7.462-11.979 13.906-22.84 20.176-10.86 6.271-19.216 7.855-28.892 9.691-4.225.803-8.594 1.632-13.29 2.89-4.694 1.258-8.891 2.724-12.949 4.142-20.176 8.021-39.584 8.013-59.74 0-4.059-1.418-8.256-2.884-12.95-4.142-4.695-1.258-9.064-2.087-13.289-2.89-9.675-1.836-18.031-3.422-28.891-9.691-10.86-6.27-16.412-12.714-22.84-20.176-5.34-6.489-12.719-13.867-19.208-19.208-17.035-13.46-26.731-30.272-29.869-51.733-.802-4.225-1.631-8.593-2.889-13.288-1.258-4.693-2.724-8.891-4.142-12.949-8.022-20.178-8.014-39.581 0-59.739 1.417-4.059 2.884-8.256 4.142-12.95s2.087-9.063 2.889-13.288c1.836-9.676 3.422-18.032 9.692-28.893 8.899-15.529 18.918-20.693 30.239-31.984 3.437-3.438 6.339-6.806 9.146-10.063 6.428-7.462 11.979-13.906 22.84-20.176 10.86-6.27 19.216-7.855 28.891-9.691 4.225-.803 8.594-1.632 13.289-2.89 15.443-4.16 24.918-10.253 42.82-10.195 17.9-.058 27.379 6.036 42.819 10.195 4.695 1.258 9.064 2.087 13.29 2.89 9.676 1.836 18.032 3.421 28.892 9.691 10.86 6.271 16.412 12.714 22.84 20.176 2.807 3.258 5.708 6.627 9.146 10.063 3.436 3.437 6.805 6.338 10.062 9.144 7.462 6.429 13.906 11.98 20.177 22.841 6.27 10.86 7.856 19.217 9.692 28.893 1.38 8.29 4.081 18.368 7.031 26.239 8.022 20.177 8.014 39.581 0 59.737-2.95 7.869-5.65 17.946-7.031 26.237zm139.032-158.24c-2.95 7.87-5.65 17.947-7.03 26.237-1.836 9.677-3.422 18.033-9.692 28.895-6.271 10.86-12.714 16.412-20.176 22.84-3.258 2.807-6.626 5.709-10.063 9.146s-6.339 6.806-9.146 10.063c-13.463 17.036-30.272 26.728-51.734 29.868-.534.101-1.07.203-1.609.306 6.288-20.42 3.444-44.027-3.67-61.686-1.357-3.886-2.639-7.556-3.705-11.531-1.065-3.978-1.79-7.797-2.558-11.841-.19-1.001-.381-2.006-.577-3.015l69.15-69.15c9.008-9.756-4.396-23.146-14.143-14.143l-61.34 61.339c-1.374-3.231-3.044-6.614-5.112-10.196-7.967-13.799-16.343-21.015-24.443-27.993-.535-.461-1.066-.918-1.592-1.373l57.132-57.132c3.905-3.905 3.905-10.237 0-14.143-3.905-3.904-10.237-3.904-14.143 0l-57.132 57.132c-.455-.526-.913-1.057-1.374-1.593-6.978-8.101-14.194-16.477-27.993-24.442-3.582-2.068-6.965-3.738-10.196-5.112l61.34-61.34c3.905-3.905 3.905-10.237 0-14.143-3.905-3.904-10.237-3.904-14.143 0l-69.15 69.15c-1.009-.196-2.013-.387-3.014-.577-4.044-.767-7.864-1.492-11.842-2.558-3.977-1.065-7.646-2.348-11.532-3.705-17.675-7.121-41.29-9.953-61.685-3.67.103-.54.205-1.077.307-1.611 1.836-9.676 3.422-18.032 9.692-28.892s12.713-16.411 20.174-22.839c3.258-2.807 6.627-5.71 10.064-9.146 3.437-3.437 6.339-6.806 9.146-10.063 6.428-7.462 11.979-13.906 22.84-20.176 15.472-9 26.73-8.461 42.18-12.581 4.695-1.258 8.893-2.724 12.953-4.142 20.175-8.022 39.578-8.013 59.733-.001 4.06 1.419 8.258 2.885 12.953 4.143 15.453 4.121 26.706 3.58 42.181 12.581 10.86 6.27 16.412 12.714 22.84 20.176 2.807 3.258 5.709 6.627 9.146 10.063 3.437 3.437 6.806 6.339 10.064 9.146 7.461 6.429 13.905 11.979 20.175 22.84 8.999 15.472 8.463 26.73 12.581 42.181 1.258 4.693 2.724 8.891 4.142 12.95 8.023 20.176 8.015 39.581.001 59.738z"/></g></svg>