<svg id="Layer_1" enable-background="new 0 0 512.001 512.001" height="512" viewBox="0 0 512.001 512.001" width="512" xmlns="http://www.w3.org/2000/svg"><g><path d="m493.646 211.137-23.074-3.846c-5.502-24.391-15.033-47.396-28.407-68.568l13.599-19.039c6.368-8.915 5.93-20.027-1.066-27.025l-35.356-35.355c-6.997-6.995-18.11-7.434-27.025-1.066l-19.038 13.6c-21.163-13.372-44.172-22.904-68.569-28.407l-3.846-23.074c-1.801-10.809-9.969-18.357-19.863-18.357h-50.001c-9.894 0-18.062 7.548-19.863 18.354l-3.846 23.074c-24.396 5.503-47.406 15.035-68.569 28.407l-19.039-13.6c-8.916-6.368-20.028-5.928-27.024 1.066l-35.357 35.358c-6.995 6.996-7.434 18.109-1.066 27.024l13.599 19.039c-13.372 21.17-22.905 44.179-28.407 68.568l-23.074 3.846c-10.807 1.802-18.355 9.971-18.354 19.864v50c-.001 9.896 7.547 18.064 18.355 19.864l23.074 3.846c5.502 24.39 15.035 47.399 28.407 68.569l-13.6 19.039c-6.367 8.917-5.928 20.029 1.067 27.024l35.355 35.354c6.996 6.999 18.11 7.436 27.025 1.067l19.039-13.599c21.164 13.371 44.173 22.903 68.569 28.406l3.846 23.074c1.801 10.807 9.969 18.354 19.863 18.354h50.001c9.894 0 18.062-7.548 19.863-18.354l3.846-23.074c24.396-5.503 47.406-15.035 68.569-28.406l19.037 13.598c8.917 6.37 20.03 5.933 27.025-1.065l35.356-35.355c6.995-6.995 7.434-18.108 1.066-27.025l-13.599-19.039c13.372-21.17 22.905-44.179 28.407-68.568l23.072-3.846c10.808-1.8 18.356-9.968 18.356-19.863v-50.001c.002-9.894-7.546-18.062-18.353-19.863zm-1.645 69.431c-.285.177-.827.432-1.643.567l-29.817 4.97c-4.124.688-7.384 3.867-8.175 7.972-5.119 26.557-15.412 51.403-30.593 73.85-2.341 3.462-2.283 8.015.146 11.415l17.571 24.6c.481.674.685 1.237.761 1.565l-34.744 34.743c-.328-.076-.89-.279-1.564-.761l-24.601-17.571c-3.402-2.429-7.955-2.487-11.416-.145-22.436 15.179-47.282 25.472-73.848 30.592-4.104.791-7.284 4.052-7.971 8.175l-4.97 29.817c-.136.816-.391 1.358-.569 1.644h-49.135c-.177-.285-.432-.827-.568-1.644l-4.97-29.817c-.687-4.123-3.867-7.384-7.971-8.175-26.565-5.12-51.412-15.413-73.848-30.592-3.462-2.343-8.016-2.283-11.416.145l-24.603 17.572c-.673.48-1.235.684-1.562.76l-34.743-34.743c.076-.328.279-.892.76-1.564l17.572-24.601c2.429-3.4 2.487-7.953.146-11.415-15.181-22.445-25.474-47.292-30.593-73.85-.791-4.104-4.052-7.284-8.175-7.972l-29.819-4.97c-.815-.136-1.356-.391-1.642-.567v-49.135c.286-.178.827-.433 1.643-.568l29.817-4.97c4.124-.688 7.384-3.867 8.175-7.972 5.119-26.557 15.412-51.403 30.593-73.849 2.341-3.462 2.283-8.014-.146-11.415l-17.572-24.602c-.481-.674-.684-1.236-.76-1.564l34.743-34.742c.328.076.891.278 1.564.76l24.601 17.572c3.4 2.428 7.954 2.486 11.416.145 22.436-15.18 47.282-25.473 73.848-30.593 4.104-.791 7.284-4.052 7.971-8.175l4.97-29.817c.136-.816.391-1.358.568-1.644h49.135c.178.285.433.827.569 1.643l4.97 29.818c.687 4.123 3.867 7.384 7.971 8.175 26.566 5.121 51.413 15.413 73.847 30.593 3.463 2.343 8.016 2.283 11.417-.145l24.601-17.572c.674-.481 1.237-.684 1.564-.76l34.743 34.742c-.076.327-.279.891-.76 1.564l-17.572 24.602c-2.429 3.401-2.487 7.953-.146 11.415 15.182 22.446 25.475 47.293 30.593 73.849.791 4.104 4.052 7.284 8.175 7.972l29.817 4.97c.816.136 1.358.391 1.644.568v49.135z"/><path d="m256 106c-82.71 0-150 67.29-150 150 8.239 198.997 291.791 198.939 300-.001 0-82.709-67.289-149.999-150-149.999zm0 280.001c-71.682 0-130-58.318-130-130.001 7.141-172.463 252.886-172.413 260 .001 0 71.682-58.317 130-130 130z"/><path d="m335.89 230.176c-1.717-26.026-23.437-46.675-49.89-46.675h-60c-26.454 0-48.174 20.649-49.89 46.675-26.599 9.375-26.655 47.144-.11 56.611v11.714c0 16.542 13.458 30 30 30h100c16.542 0 30-13.458 30-30v-11.714c26.563-9.477 26.473-47.247-.11-56.611zm-109.89-26.675h60c14.838 0 27.195 10.83 29.583 25h-119.166c2.387-14.17 14.744-25 29.583-25zm80 105h-100c-5.514 0-10-4.486-10-10v-10h120v10c0 5.514-4.486 10-10 10zm20-40h-140c-13.27-.551-13.259-19.454 0-20h140c13.27.551 13.26 19.454 0 20z"/></g></svg>