<svg id="Layer_1" enable-background="new 0 0 511.976 511.976" height="512" viewBox="0 0 511.976 511.976" width="512" xmlns="http://www.w3.org/2000/svg"><g><path d="m365.987 152.981v-51.005c0-5.522-4.478-10-10-10h-89.999v-50.649l80.962-21.693c12.681-3.945 7.763-22.245-5.176-19.318l-88.375 23.68c-4.372 1.171-7.412 5.133-7.412 9.659v58.322h-90c-5.523 0-10 4.478-10 10v51.005c-22.795 4.645-40 24.849-40 48.995v260c0 27.569 22.43 49.999 50 49.999h199.999c27.57 0 50.001-22.43 50.001-49.999v-260c.001-24.147-17.205-44.35-40-48.996zm-20-41.004v40h-179.999v-40zm-189.999 60h199.999c16.543 0 30.001 13.458 30.001 30v14.023c-66.91-14.213-104.027-5.961-139.989 2.031-33.23 7.387-64.692 14.379-120.011 2.288v-18.341c0-16.543 13.458-30.001 30-30.001zm199.999 319.999h-199.999c-16.542 0-30-13.458-30-29.999v-221.216c44.198 9.921 86.053 6.467 124.351-3.207 34.567-7.684 70.27-15.618 135.649-1.086v225.509c0 16.541-13.458 29.999-30.001 29.999z"/><path d="m324.507 294.071c-.923-3.457-3.623-6.158-7.081-7.081-32.85-8.772-68.176.696-92.193 24.714-22.628 22.627-32.342 55.293-26.054 86.469l-12.021 12.021c-9.015 9.743 4.411 23.153 14.143 14.143l12.02-12.02c68.662 14.305 129.705-50.325 111.186-118.246zm-38.858 78.05c-14.479 14.479-34.158 22.269-54.207 22.074l31.616-31.616c3.905-3.905 3.905-10.237 0-14.143-3.904-3.906-10.237-3.904-14.142 0l-31.616 31.616c-.194-20.048 7.596-39.727 22.075-54.206 17.584-17.586 42.842-25.303 67.11-20.835 4.468 24.271-3.251 49.526-20.836 67.11z"/><path d="m168.487 280.226h-.007c-5.523 0-9.997 4.478-9.997 10 .528 13.263 19.479 13.263 20.004 0 0-5.523-4.477-10-10-10z"/><path d="m319.987 436.227h-.007c-5.522 0-9.997 4.478-9.997 10 .529 13.263 19.479 13.263 20.004 0 0-5.523-4.478-10-10-10z"/><path d="m349.612 255.102h-.008c-5.522 0-9.996 4.478-9.996 10 .529 13.263 19.479 13.263 20.004 0 0-5.523-4.478-10-10-10z"/></g></svg>