<svg id="Layer_1" enable-background="new 0 0 512 512" height="512" viewBox="0 0 512 512" width="512" xmlns="http://www.w3.org/2000/svg"><path d="m509.071 28.399-25.437-25.437c-3.395-3.396-8.724-3.898-12.694-1.198l-104.194 70.851-10.3-10.299c-13.25-13.25-34.809-13.25-48.059 0l-25.437 25.437c-2.319 2.319-3.261 5.494-2.826 8.508-14.369.349-28.631 5.992-39.57 16.929l-230.629 230.632c-6.4 6.399-9.926 14.934-9.925 24.03 0 9.096 3.524 17.629 9.924 24.028l110.228 110.229c12.602 13.144 35.457 13.144 48.059 0l230.632-230.632c10.94-10.94 16.584-25.202 16.932-39.57 3.069.432 6.182-.517 8.505-2.826l25.438-25.438c13.249-13.25 13.249-34.809 0-48.059l-10.3-10.299 70.852-104.191c2.699-3.971 2.196-9.299-1.199-12.695zm-166.223 270.788-42.364-42.364c-13.25-13.25-34.808-13.248-48.058 0l-46.556 46.557c-6.396 6.396-9.918 14.927-9.921 24.022-.002 9.101 3.521 17.637 9.921 24.036l42.363 42.364-21.213 21.213-59.322-59.322c-3.906-3.904-10.236-3.904-14.143 0-3.905 3.905-3.905 10.237 0 14.143l59.322 59.322-21.213 21.213-77.719-77.718c-5.451-5.453-5.452-14.324 0-19.775l152.623-152.624c5.156-5.384 14.618-5.384 19.773.001l77.719 77.72zm-80.473 80.472-42.364-42.364c-2.62-2.62-4.062-6.132-4.062-9.889 0-3.755 1.443-7.266 4.062-9.885l46.556-46.557c5.451-5.45 14.322-5.452 19.773 0l42.363 42.364zm122.324-122.324-6.496 6.496-77.719-77.72c-12.602-13.144-35.458-13.144-48.059 0l-152.622 152.623c-13.249 13.249-13.249 34.809 0 48.06l77.719 77.719-23.454 23.454c-5.451 5.451-14.322 5.451-19.773 0l-110.229-110.229c-5.386-5.157-5.387-14.616 0-19.773l230.631-230.632c14.791-14.794 38.869-14.802 53.672-.019l76.409 76.409c14.722 14.811 14.696 38.837-.079 53.612zm50.875-67.833-18.366 18.366-113.044-113.044 18.366-18.366c5.451-5.451 14.322-5.451 19.773 0l93.271 93.271c5.452 5.451 5.452 14.322 0 19.773zm-10.553-58.612-43.878-43.878 94.2-64.056 13.734 13.734z"/></svg>