<svg id="Layer_1" enable-background="new 0 0 512.002 512.002" height="512" viewBox="0 0 512.002 512.002" width="512" xmlns="http://www.w3.org/2000/svg"><g><path d="m502.002 112.002c5.522 0 10-4.478 10-10v-92.002c0-5.522-4.478-10-10-10h-492.002c-5.522 0-10 4.478-10 10v92.002c0 5.522 4.478 10 10 10h10v31.714c-11.64 4.127-20 15.249-20 28.286v120c0 5.522 4.478 10 10 10h10v140h-10c-5.522 0-10 4.478-10 10v50c0 5.522 4.478 10 10 10h492.002c5.522 0 10-4.478 10-10v-50c0-5.522-4.478-10-10-10h-10v-140h10c5.522 0 10-4.478 10-10v-120c0-13.037-8.36-24.159-20-28.286v-31.714zm-10-20h-403.416c78.73-36.454 334.766-18.563 365.148-72.002h38.268zm-472.002-72.002h401.908c-46.139 17.033-105.457 18.981-163.491 24.815-54.9 6.416-177.103 8.706-200.199 47.187h-38.218zm0 152.002c0-5.514 4.486-10 10-10h80c5.514 0 10 4.486 10 10v110h-100zm472.002 320h-472.002v-30h472.002zm-20-130.001h-70c-13.268.529-13.258 19.476 0 20h70v20h-70c-13.268.529-13.258 19.476 0 20h70v20.001h-432.002v-20.001h70c13.268-.529 13.258-19.476 0-20h-70v-20h70c13.268-.529 13.258-19.476 0-20h-70v-59.999h20v29.999c.529 13.268 19.476 13.258 20 0v-29.999h50c5.522 0 10-4.478 10-10v-50h46.001v50c0 5.522 4.478 10 10 10h50v29.999c.529 13.268 19.476 13.258 20 0v-29.999h50c5.522 0 10-4.478 10-10v-50h46.001v50c0 5.522 4.478 10 10 10h50v29.999c.529 13.268 19.476 13.258 20 0v-29.999h20zm-266.001-79.999v-110c0-5.514 4.486-10 10-10h80c5.514 0 10 4.486 10 10v110zm286.001 0h-100v-110c0-5.514 4.486-10 10-10h80c5.514 0 10 4.486 10 10zm-20-140h-70c-16.542 0-30 13.458-30 30v50h-46.001v-50c0-16.542-13.458-30-30-30h-80c-16.542 0-30 13.458-30 30v50h-46.001v-50c0-16.542-13.458-30-30-30h-70v-30h432.002z"/><path d="m296.001 402.001h-80c-13.268.529-13.258 19.476 0 20h80c13.268-.529 13.258-19.476 0-20z"/><path d="m296.001 362.001h-80c-13.268.529-13.258 19.476 0 20h80c13.268-.529 13.258-19.476 0-20z"/></g></svg>