<svg id="Layer_1" enable-background="new 0 0 511.976 511.976" height="512" viewBox="0 0 511.976 511.976" width="512" xmlns="http://www.w3.org/2000/svg"><g><path d="m502.085 272.693c-10.555-27.022-29.524-55.486-52.043-78.094-22.244-22.33-24.232-47.023-26.337-73.166-2.401-29.824-4.885-60.663-40.554-81.396-45.156-26.247-84.109-10.654-125.35 5.854-18.22 7.293-37.056 14.833-57.757 19.467-28.005 4.093-48.837-1.791-68.986-7.481-23.772-6.711-48.354-13.652-80.149-1.499-26.096 9.978-42.608 31.64-47.753 62.645-3.722 22.436-1.239 50.282 6.812 76.402 5.93 19.235 1.63 50.257-2.922 83.1-7.965 57.473-16.993 122.612 20.963 163.793 26.763 29.036 56.841 43.668 89.646 43.666 6.456 0 13.022-.567 19.685-1.702 47.747-7.628 86.172-42.22 124.55-59.834 13.537-5.174 37.424-3.062 62.713-.826 28.751 2.54 61.34 5.42 92.107-.38 71.502-12.78 116.183-78.266 85.375-150.549zm-20.13 85.137c-34.919 56.534-99.029 50.867-155.592 45.868-28.851-2.551-53.769-4.754-71.613 2.067-11.071 4.23-23.424 11.905-37.729 20.793-24.8 15.407-52.91 32.871-83.042 38.007-33.881 5.771-63.737-5.936-91.265-35.803-31.555-34.235-23.216-94.405-15.858-147.492 4.865-35.104 9.46-68.261 2.223-91.737-2.918-9.468-26.898-93.113 28.971-114.473 24.145-9.431 43.372-4.984 67.572 2.065 21.226 5.993 45.283 12.784 77.712 7.965.234-.035.466-.078.697-.129 22.425-4.98 42.138-12.871 61.201-20.501 39.747-15.91 71.141-28.476 107.867-7.131 53.055 30.363 8.945 99.433 62.772 151.386 29.503 29.616 77.101 98.896 46.084 149.115z"/><path d="m130.229 205.73c-49.083 28.338-68.606 86.74-43.521 130.188 26.31 45.932 89.971 54.076 134.507 27.403 49.082-28.338 68.606-86.74 43.521-130.188s-85.424-55.739-134.507-27.403zm80.986 140.272c-35.162 21.151-86.338 16.222-107.187-20.083-19.571-33.897-3.331-80.043 36.201-102.868 39.532-22.821 87.616-13.813 107.187 20.083 19.57 33.897 3.331 80.044-36.201 102.868z"/></g></svg>