<svg id="Layer_1" enable-background="new 0 0 512.001 512.001" height="512" viewBox="0 0 512.001 512.001" width="512" xmlns="http://www.w3.org/2000/svg"><g><path d="m462.001 126.167h-120v-29.999c0-16.542-13.458-30-30-30h-282.001c-16.542 0-30 13.458-30 30v279.999c0 5.522 4.477 10 10 10h40.713c13.299 79.584 125.308 79.525 138.575 0h133.426c13.299 79.583 125.307 79.526 138.575 0h40.712c5.523 0 10-4.478 10-10v-200c0-27.57-22.429-50-50-50zm30 130h-90v-60h90zm-149.999-110h120c16.542 0 30 13.458 30 30h-100c-5.523 0-10 4.478-10 10v80c0 5.522 4.477 10 10 10h100v40h-63.975c-20.733-13.194-51.316-13.193-72.048 0h-13.976v-170zm-19.288 220h-133.426c-1.585-11.034-5.753-21.246-11.871-30h157.167c-6.116 8.754-10.284 18.966-11.87 30zm-238.738-50h-63.976v-124.077c8.778 4.71 20.656 5.394 30 1.645v62.432c-13.268.528-13.258 19.476 0 20h242.001c13.268-.528 13.258-19.476 0-20v-62.432c9.345 3.749 21.222 3.065 30-1.645v124.077h-165.976c-20.733-13.194-51.316-13.193-72.049 0zm-13.976-126.245c14.375 10.101 35.758 7.506 47.333-5.38 13.918 15.39 39.754 15.385 53.667 0 13.918 15.39 39.754 15.385 53.667 0 11.578 12.889 32.961 15.48 47.333 5.38v66.246h-202zm198.335-30.588c-.932 22.36-32.792 22.308-33.667-.038v-73.128h33.667zm-53.667.026c-.958 22.318-32.75 22.279-33.667-.025v-73.167h33.667v73.166c-.001.009 0 .017 0 .026zm-53.667-.026c-.928 22.337-32.748 22.32-33.667 0v-73.166h33.667zm-53.667 0c-.928 22.337-32.748 22.32-33.667 0v-73.166h33.667zm214.668-63.166v63.166c-.928 22.337-32.747 22.319-33.667 0v-73.166h23.667c5.514 0 10 4.487 10 10zm-302.002 0c0-5.514 4.486-10 10-10h23.667v73.166c-.928 22.337-32.748 22.319-33.667 0zm0 239.999h42.584c-6.117 8.754-10.285 18.966-11.871 30h-30.713zm100 90c-27.57 0-50-22.43-50-50 2.746-66.332 97.264-66.312 100.001 0 0 27.571-22.43 50-50.001 50zm272.002 0c-27.57 0-50-22.43-50-50 2.746-66.332 97.264-66.313 100 0 0 27.571-22.43 50-50 50zm69.287-60c-1.585-11.034-5.753-21.246-11.871-30h42.583v30z"/><path d="m392.005 366.167h-.007c-5.523 0-9.997 4.478-9.997 10 .529 13.263 19.479 13.263 20.004 0 0-5.522-4.477-10-10-10z"/><path d="m120.004 366.167h-.007c-5.523 0-9.997 4.478-9.997 10 .528 13.263 19.479 13.263 20.004 0 0-5.522-4.477-10-10-10z"/></g></svg>