<svg id="Layer_1" enable-background="new 0 0 512 512" height="512" viewBox="0 0 512 512" width="512" xmlns="http://www.w3.org/2000/svg"><g><path d="m512 298.5c0-13.5-5.591-26.114-14.74-35.294 19.514-12.503 19.547-41.814.075-54.364 9.057-9.053 14.665-21.555 14.665-35.342 0-60.654-49.346-110-110-110h-292c-60.654 0-110 49.346-110 110 0 13.787 5.609 26.288 14.665 35.342-19.484 12.559-19.43 41.876.081 54.368-21.637 21.014-18.766 57.824 5.286 75.29-12.155 9.13-20.032 23.662-20.032 40v20c0 27.57 22.43 50 50 50h412c27.57 0 50-22.43 50-50v-20c0-16.338-7.877-30.87-20.032-40 12.156-9.129 20.032-23.662 20.032-40zm-402-215h292c49.626 0 90 40.374 90 90 0 16.542-13.458 30-30 30h-412c-16.542 0-30-13.458-30-30 0-49.626 40.374-90 90-90zm369.5 140c16.583.688 16.576 24.316 0 25-13.762 0-21.543 5.053-27.796 9.113-5.264 3.418-9.066 5.887-16.904 5.887-6.663 0-10.41-1.784-14.618-4.419-.079-.052-.159-.102-.24-.151-.665-.419-1.342-.859-2.046-1.316-16.531-12.177-39.105-12.147-55.592 0-5.264 3.418-9.066 5.887-16.904 5.887s-11.641-2.47-16.904-5.887c-16.53-12.178-39.106-12.147-55.592 0-5.263 3.418-9.065 5.887-16.904 5.887-7.838 0-11.641-2.469-16.904-5.887-16.53-12.177-39.105-12.148-55.592 0-.688.447-1.35.877-2 1.288-.118.071-.234.144-.349.22-4.181 2.613-7.924 4.379-14.554 4.379-7.838 0-11.641-2.47-16.904-5.887-16.53-12.177-39.105-12.147-55.592 0-5.263 3.418-9.066 5.887-16.904 5.887s-11.641-2.469-16.904-5.887c-6.253-4.061-14.034-9.113-27.796-9.113-16.581-.686-16.578-24.316 0-25h446.999zm-171.729 136.801c-3.683 3.848-10.459 3.848-14.142 0l-28.867-28.867-.009-.009-61.698-61.698c2.299-.778 4.905-1.227 8.244-1.227 7.838 0 11.641 2.47 16.904 5.887 16.531 12.177 39.105 12.147 55.592 0 5.263-3.417 9.065-5.887 16.904-5.887 7.837 0 11.64 2.469 16.903 5.887 16.531 12.177 39.105 12.147 55.592 0 5.264-3.418 9.066-5.887 16.904-5.887 3.339 0 5.946.448 8.245 1.227zm-257.771-31.801c-34.425-.82-41.331-47.656-8.883-58.643 2.932 1.053 5.388 2.648 8.288 4.53 16.53 12.177 39.105 12.147 55.592 0 5.264-3.418 9.066-5.887 16.904-5.887s11.641 2.469 16.904 5.887c11.67 8.676 29.836 12.612 46.055 5.428l48.685 48.685zm442 50v20c0 16.542-13.458 30-30 30h-412c-16.542 0-30-13.458-30-30v-20c0-16.542 13.458-30 30-30h203.543l25.943 25.943c11.698 11.697 30.73 11.697 42.427 0l25.943-25.943h114.144c16.542 0 30 13.458 30 30zm-30-50h-94.144l48.685-48.685c16.264 7.196 34.402 3.229 46.054-5.429 2.9-1.882 5.356-3.477 8.288-4.53 32.472 10.99 25.519 57.837-8.883 58.644z"/><path d="m136.004 133.501c13.268-.528 13.258-19.476 0-20h-.007c-13.269.53-13.251 19.478.007 20z"/><path d="m256.004 133.501c13.269-.529 13.259-19.476 0-20h-.007c-13.269.53-13.251 19.478.007 20z"/><path d="m376.003 133.501c13.268-.529 13.258-19.476 0-20h-.007c-13.268.531-13.251 19.478.007 20z"/><path d="m76.004 173.499c13.268-.528 13.258-19.476 0-20h-.007c-13.269.531-13.251 19.478.007 20z"/><path d="m196.004 173.499c13.268-.528 13.258-19.476 0-20h-.007c-13.269.531-13.251 19.478.007 20z"/><path d="m316.003 173.499c13.268-.529 13.258-19.476 0-20h-.007c-13.268.531-13.251 19.478.007 20z"/><path d="m436.003 173.499c13.268-.529 13.258-19.476 0-20h-.007c-13.268.531-13.251 19.478.007 20z"/></g></svg>