<svg id="Layer_1" enable-background="new 0 0 511.967 511.967" height="512" viewBox="0 0 511.967 511.967" width="512" xmlns="http://www.w3.org/2000/svg"><g><path d="m255.983 0c-108.118 0-196.078 87.96-196.078 196.077 0 98.497 103.474 215.906 171.944 293.599 5.868 6.659 11.412 12.949 16.595 18.895 3.768 4.529 11.308 4.528 15.076 0 72.756-83.595 187.264-204.826 188.541-312.493 0-108.118-87.96-196.078-196.078-196.078zm9.125 476.455c-3.136 3.558-6.178 7.011-9.126 10.365-2.948-3.355-5.992-6.81-9.129-10.368-66.48-75.434-166.948-189.432-166.948-280.375 0-97.089 78.989-176.077 176.078-176.077 97.09 0 176.078 78.988 176.078 176.077 0 90.944-100.47 204.943-166.953 280.378z"/><path d="m255.983 49.999c-80.548 0-146.078 65.53-146.078 146.077 8.024 193.792 284.161 193.737 292.156-.001 0-80.546-65.531-146.076-146.078-146.076zm0 272.155c-69.52 0-126.078-56.559-126.078-126.078 6.925-167.258 245.256-167.21 252.156.001 0 69.519-56.558 126.077-126.078 126.077z"/><path d="m335.873 170.252c-1.717-26.026-23.437-46.675-49.889-46.675h-60.001c-26.454 0-48.174 20.65-49.89 46.675-26.599 9.375-26.655 47.144-.11 56.611v11.714c0 16.542 13.458 30 30 30h100c16.542 0 30-13.458 30-30v-11.714c26.562-9.476 26.472-47.247-.11-56.611zm-109.89-26.675h60.001c14.838 0 27.195 10.83 29.582 25h-119.167c2.387-14.17 14.744-25 29.584-25zm80 105h-100c-5.514 0-10-4.486-10-10v-10h120v10c0 5.514-4.487 10-10 10zm20-40h-140c-13.271-.551-13.261-19.454 0-20h140c13.269.551 13.259 19.454 0 20z"/></g></svg>