<svg id="Layer_1" enable-background="new 0 0 512.002 512.002" height="512" viewBox="0 0 512.002 512.002" width="512" xmlns="http://www.w3.org/2000/svg"><path d="m512.002 246.086c0-5.522-4.478-10-10-10h-29.221c22.358-69.112-40.921-137.38-111.512-120.41-4.52-11.901-12.914-21.786-24.146-28.27-13.275-7.666-28.688-9.521-43.39-5.229-11.244 3.282-20.904 9.815-27.994 18.788-17.468-8.694-38.082-7.609-54.938 3.486-.198.131-.396.262-.592.395-16.847-11.445-37.742-12.781-55.545-3.888-7.089-8.969-16.747-15.499-27.988-18.781-14.701-4.293-30.113-2.437-43.39 5.229-13.275 7.664-22.588 20.08-26.223 34.961-2.778 11.376-1.952 23.005 2.271 33.63-26.576 16.72-32.332 55.595-13.167 80.089h-36.167c-5.522 0-10 4.478-10 10 0 71.628 55.661 130.5 126.001 135.636v40.365c0 5.522 4.478 10 10 10h240c5.522 0 10-4.478 10-10v-40.365c70.34-5.136 126.001-64.008 126.001-135.636zm-136.001 116.001h-240c-29.891 0-57.178-11.365-77.767-30.001h395.534c-20.589 18.636-47.876 30.001-77.767 30.001zm81.207-154.53c0 9.746-1.959 19.517-5.692 28.529h-77.056c4.706-6.639 8.012-14.34 9.608-22.608 15.768-5.575 26.739-13.518 33.478-24.219 2.942-4.674 1.539-10.848-3.135-13.79-4.674-2.944-10.848-1.539-13.79 3.134-3.33 5.287-8.719 9.656-16.352 13.229-2.618-14.804-10.902-27.566-23.205-35.804 2.628-6.602 3.944-13.592 3.899-20.668 45.952-11.975 92.878 24.64 92.245 72.197zm-194.452-85.001c2.349 1.781 5.364 2.437 8.238 1.787 2.875-.647 5.318-2.531 6.677-5.146 4.538-8.737 12.233-15.065 21.669-17.82 18.81-5.952 40.327 6.473 44.578 25.737 2.332 9.549.698 19.377-4.599 27.676-1.586 2.484-1.995 5.542-1.118 8.355.876 2.814 2.95 5.099 5.667 6.242 13.186 5.552 21.144 17.612 21.287 32.264.147 15.085-8.033 28.555-20.873 34.436h-81.452l7.751-13.425 49.784-9.107c12.961-2.91 9.534-21.542-3.599-19.674l-33.061 6.048 33.227-57.551c2.762-4.783 1.123-10.898-3.66-13.66-4.785-2.761-10.899-1.122-13.66 3.66l-33.227 57.55-11.293-31.655c-1.856-5.202-7.577-7.911-12.779-6.059-5.201 1.856-7.914 7.577-6.059 12.779l17.006 47.667-13.524 23.425h-32.165l-8.442-23.662c-1.855-5.202-7.577-7.91-12.779-6.059-5.201 1.856-7.914 7.577-6.059 12.779l6.044 16.941h-32.35c-.871-5.034-1.871-10.433-3.029-16.345-3.292-16.815.889-32.993 10.911-42.22 8.253-7.599 19.42-9.689 32.288-6.044 3.427.968 7.113.043 9.676-2.433 2.562-2.477 3.611-6.129 2.757-9.588-4.432-17.938 4.952-31.546 15.212-38.3 10.118-6.658 26.19-9.792 40.956 1.402zm-187.214 112.141c-15.468-6.872-20.858-21.616-20.746-33.123.142-14.481 8.272-26.514 21.749-32.188 2.716-1.144 4.789-3.428 5.666-6.241.877-2.814.468-5.872-1.118-8.356-5.297-8.299-6.93-18.128-4.598-27.677 2.326-9.526 8.29-17.477 16.793-22.386 8.503-4.908 18.372-6.101 27.784-3.351 9.436 2.755 17.131 9.083 21.669 17.82 1.358 2.615 3.802 4.499 6.677 5.146 2.876.649 5.891-.006 8.239-1.787 13.389-10.152 27.573-8.594 37.775-3.255-6.277 8.943-9.739 19.512-9.916 30.517-14.145-.794-27.038 3.638-37.194 12.989-2.216 2.041-4.248 4.284-6.086 6.7l-21.436-37.127c-2.762-4.782-8.874-6.422-13.66-3.66-4.783 2.761-6.422 8.877-3.66 13.66l28.417 49.221c-2.452 9.975-2.728 20.947-.567 31.985.871 4.45 1.65 8.595 2.349 12.502h-55.874c-.674-.549-1.43-1.019-2.263-1.389zm416.033 21.389c-1.774 20.681-8.999 39.83-20.227 56h-430.695c-11.227-16.17-18.452-35.319-20.226-56zm-125.574 156.001h-220v-30h220z"/></svg>