<svg id="Layer_1" enable-background="new 0 0 511.914 511.914" height="512" viewBox="0 0 511.914 511.914" width="512" xmlns="http://www.w3.org/2000/svg"><path d="m510.573 127.684c-15.075-26.113-33.531-50.165-54.855-71.489-21.322-21.322-45.375-39.779-71.488-54.855-3.921-2.264-8.871-1.611-12.071 1.589l-59.084 59.084c-14.937 14.938-24.376 33.932-27.296 54.928-2.473 17.783.085 36.149 7.212 52.485l-146.013 146.013-.508-.508c-3.724-3.873-10.419-3.873-14.143 0l-119.067 119.068c-17.68 16.948-17.678 47.707 0 64.655 16.949 17.679 47.708 17.679 64.656 0l119.067-119.067c3.905-3.905 3.905-10.237 0-14.143l-.508-.508 146.013-146.012c16.336 7.126 34.703 9.687 52.486 7.211 20.997-2.921 39.99-12.359 54.926-27.296l59.084-59.084c3.201-3.2 3.852-8.151 1.589-12.071zm-446.8 356.828c-9.504 9.921-26.868 9.921-36.371 0-9.92-9.503-9.92-26.868 0-36.37l111.997-111.997 36.371 36.371zm371.985-299.815c-23.694 23.693-60.95 29.168-90.603 13.314-3.884-2.076-8.671-1.367-11.787 1.747l-151.036 151.036-21.212-21.212 151.036-151.036c3.115-3.115 3.825-7.902 1.747-11.787-15.856-29.65-10.381-66.908 13.313-90.603l53.592-53.593c22.07 13.444 42.483 29.49 60.767 47.774 18.285 18.284 34.331 38.698 47.774 60.768z"/></svg>