<svg id="Layer_1" enable-background="new 0 0 512.001 512.001" height="512" viewBox="0 0 512.001 512.001" width="512" xmlns="http://www.w3.org/2000/svg"><g><path d="m502.001 61.001h-492.001c-5.523 0-10 4.478-10 10v370c0 5.522 4.477 10 10 10h492.001c5.523 0 10-4.478 10-10v-370c0-5.523-4.477-10-10-10zm-10 370h-472.001v-350h472.001z"/><path d="m60 351.002c22.056 0 40 17.944 40 40 0 5.522 4.477 10 10 10h292.002c5.523 0 10-4.478 10-10 0-22.056 17.944-40 40-40 5.523 0 10-4.478 10-10v-170.001c0-5.522-4.477-10-10-10-22.056 0-40-17.944-40-40 0-5.522-4.477-10-10-10h-292.002c-5.523 0-10 4.478-10 10 0 22.056-17.944 40-40 40-5.523 0-10 4.478-10 10v170.001c0 5.522 4.477 10 10 10zm10-170.834c25.087-4.228 44.939-24.079 49.166-49.167h273.669c4.227 25.088 24.079 44.939 49.167 49.167v151.667c-25.088 4.227-44.94 24.079-49.167 49.167h-273.669c-4.227-25.088-24.079-44.94-49.166-49.167z"/><path d="m176 264.287v11.714c0 16.542 13.458 30 30 30h100c16.542 0 30-13.458 30-30v-11.714c26.563-9.477 26.473-47.247-.11-56.611-1.717-26.026-23.437-46.675-49.89-46.675h-60c-26.453 0-48.173 20.649-49.89 46.675-26.598 9.375-26.654 47.144-.11 56.611zm130.001 21.714h-100.001c-5.514 0-10-4.486-10-10v-10h120v10c0 5.513-4.485 10-9.999 10zm20-40h-140c-13.27-.551-13.259-19.454 0-20h140c13.27.551 13.259 19.454 0 20zm-100.001-65h60c14.838 0 27.195 10.83 29.583 25h-119.166c2.388-14.171 14.745-25 29.583-25z"/><path d="m326 331.001h-140c-13.268.528-13.258 19.476 0 20h140c13.268-.529 13.258-19.477 0-20z"/></g></svg>