<svg id="Layer_1" enable-background="new 0 0 511.95 511.95" height="512" viewBox="0 0 511.95 511.95" width="512" xmlns="http://www.w3.org/2000/svg"><g><path d="m511.798 132.35c-1.076-13.714-8.942-25.543-20.53-31.911 1.604-8.046.687-16.462-2.778-24.174-3.604-8.022-9.613-14.493-17.103-18.627 2.063-13.284-1.329-26.945-9.708-37.953-10.323-13.562-26.629-20.858-43.633-19.531-10.289.808-19.846 4.666-27.66 11.057-6.535-3.638-13.973-5.359-21.651-4.924-7.949.451-15.383 3.172-21.596 7.813-17.337-9.12-41.251-2.499-51.399 14.275-25.073-.046-47.795 21.656-48.849 46.716-9.621 4.405-17.043 12.424-20.713 22.269-21.883-1.459-42.125 17.487-41.873 39.516-8.732 7.932-14.306 18.559-15.868 30.453-1.287 9.801.28 19.47 4.448 28.107-8.007 6.082-13.423 15.026-15.097 25.437-1.659 10.316.624 20.421 6.211 28.672-10.385 10.203-15.87 24.504-14.694 39.502.375 4.785 1.441 9.453 3.125 13.87l-74.494 74.495c-20.524-9.985-45.503-6.104-62.105 10.498-21.075 20.222-21.076 56.61 0 76.83 5.417 5.418 11.91 9.62 19.009 12.337 13.777 36.556 61.691 46.821 89.167 19.009 16.602-16.603 20.482-41.582 10.499-62.105l77.106-77.106c7.707 5.742 17.407 8.555 27.008 7.792 15.585-1.223 28.479-11.075 33.996-24.858 9.936 1.576 20.3-.635 28.906-6.502 8.538-5.82 14.26-14.296 16.448-23.901 11.984.878 23.866-2.597 33.505-9.849 7.906 6.566 18.176 9.94 28.701 9.124 20.18-1.153 37.071-19.441 36.883-39.513 9.886-2.39 18.575-8.408 24.397-17.209 5.572-8.424 7.796-18.239 6.556-27.828 21.981-5.487 38.411-28.176 36.773-50.759 6.582-2.222 12.489-6.144 17.203-11.515 7.177-8.178 10.661-18.657 9.81-29.507zm-396.88 292.933c-3.426 3.427-3.903 8.816-1.131 12.791 9.509 13.638 7.86 32.087-3.921 43.868-18.501 18.668-50.721 9.989-57.434-15.375-.923-3.457-3.624-6.158-7.082-7.081-25.373-6.719-34.037-38.942-15.375-57.435 11.781-11.782 30.229-13.432 43.869-3.921 3.976 2.771 9.366 2.295 12.791-1.132l76.839-76.839c1.478 1.508 3.058 2.928 4.732 4.247 8.233 6.486 18.298 10.176 28.646 10.665.559 2.092 1.286 4.135 2.171 6.106zm372.039-276.619c-3.591 4.092-8.572 6.503-14.026 6.787-3.016.157-5.799 1.669-7.572 4.112-1.774 2.444-2.349 5.559-1.563 8.475 5.342 18.473-9.405 37.982-28.661 37.84-3.418.039-6.579 1.822-8.381 4.727-1.803 2.904-1.996 6.528-.514 9.608 3.227 6.706 2.681 14.447-1.462 20.709-4.174 6.31-10.917 9.728-18.491 9.371-3.234-.15-6.337 1.271-8.334 3.817-1.997 2.545-2.639 5.899-1.723 9.003 1.718 5.821.727 12.031-2.719 17.037-3.431 4.985-8.86 8.116-14.896 8.589-7.245.571-14.229-2.846-18.249-8.905-1.738-2.62-4.607-4.271-7.746-4.455-3.145-.187-6.183 1.117-8.215 3.516-7.99 9.423-20.709 12.977-32.403 9.059-3.209-1.077-6.747-.452-9.399 1.652-2.651 2.107-4.057 5.413-3.732 8.784.706 7.357-2.514 14.232-8.612 18.391-6.159 4.197-13.755 4.718-20.32 1.385-2.98-1.511-6.518-1.438-9.434.203-2.912 1.641-4.813 4.628-5.064 7.961-.734 9.724-8.636 17.632-18.381 18.396-5.643.445-11.024-1.433-15.166-5.277-4.148-3.852-6.42-9.1-6.397-14.775.012-2.935-1.265-5.726-3.494-7.635-2.227-1.913-5.208-2.744-8.081-2.281-8.392 1.337-16.68-.814-23.339-6.061-6.648-5.237-10.674-12.771-11.336-21.213-.898-11.45 4.677-22.226 14.548-28.122 5.928-3.317 6.516-12.377 1.069-16.434-5.758-4.546-8.498-11.604-7.328-18.88 1.169-7.269 5.973-13.104 12.849-15.61 6.326-2.109 8.682-10.653 4.333-15.707-5.244-6.444-7.534-14.54-6.45-22.797 1.087-8.281 5.413-15.54 12.179-20.438 2.985-2.161 4.54-5.789 4.046-9.441-.946-6.994 1.615-13.578 7.028-18.065 5.382-4.461 12.518-5.822 19.084-3.641 5.905 2.135 12.745-2.378 13.118-8.643.727-8.561 7.087-15.868 15.466-17.77 4.905-1.113 8.221-5.698 7.74-10.706-.87-9.083 2.373-17.943 8.9-24.31 6.554-6.395 15.521-9.43 24.604-8.332 4.473.533 8.755-1.976 10.459-6.146 2.416-5.915 7.354-10.221 13.551-11.814 6.188-1.592 12.584-.208 17.543 3.799 4.2 3.395 10.34 2.84 13.863-1.254 3.574-4.15 8.552-6.607 14.018-6.917 5.471-.312 10.699 1.569 14.725 5.294 2.005 1.854 4.68 2.81 7.408 2.642 2.727-.169 5.265-1.445 7.026-3.532 5.216-6.182 12.525-9.934 20.584-10.565 10.324-.817 19.873 3.455 26.154 11.704 6.239 8.196 7.888 18.816 4.411 28.408-2.068 5.337 1.313 11.764 6.881 13.086 12.128 2.919 18.654 17.42 12.789 28.424-3.006 5.538.463 13.004 6.633 14.281 8.515 1.989 14.695 9.189 15.38 17.916.427 5.425-1.315 10.663-4.901 14.75z"/><path d="m406.475 135.63c-5.452.877-9.162 6.008-8.285 11.461 1.318 8.202-.745 16.357-5.812 22.966-5.083 6.628-12.458 10.752-20.768 11.61-3.666.379-6.826 2.743-8.225 6.153-2.677 6.53-8.188 10.952-15.118 12.132-6.899 1.171-13.752-1.216-18.348-6.391-2.036-2.291-5.025-3.524-8.065-3.341-3.059.181-5.866 1.753-7.617 4.267-4.911 7.051-14.073 10.197-22.278 7.657-5.273-1.635-10.878 1.317-12.511 6.593-1.635 5.275 1.317 10.877 6.593 12.511 12.754 4.015 26.962 1.236 37.217-7.296 8.271 5.319 18.306 7.429 28.365 5.717 11.73-1.997 21.722-8.95 27.656-19.003 11.529-2.502 21.669-8.919 28.97-18.439 8.448-11.018 11.889-24.623 9.688-38.312-.878-5.453-6.013-9.17-11.462-8.285z"/></g></svg>