<svg id="Layer_1" enable-background="new 0 0 512.006 512.006" height="512" viewBox="0 0 512.006 512.006" width="512" xmlns="http://www.w3.org/2000/svg"><path d="m391.003 443.462v-324.913c38.138-12.213 30.483-67.575-10-68.545h-82.511l2.428-18.713c.968-7.457-1.362-14.823-6.562-20.741-5.802-6.604-14.533-10.546-23.355-10.546h-30c-16.408-.3-32.413 14.531-29.917 31.287l2.429 18.713h-82.512c-40.513.981-48.113 56.35-10 68.545v324.913c-38.138 12.213-30.483 67.575 10 68.545h250c40.513-.982 48.113-56.351 10-68.545zm-59.794-1.456c12.246-65.667-10.468-111.962-32.476-156.815-23.723-48.35-46.172-94.102-29.628-165.187h101.898v322.002zm-143.227-322.002c-42.839 131.11 63.299 188.734 7.339 322.002h-54.318v-322.002zm25.892 147.666c-13.717-45.593-26.696-88.736-4.667-147.665h39.407c-32.35 141.354 86.856 190.563 62.215 322.002h-94.03c27.494-73.229 12.044-124.583-2.925-174.337zm17.046-238.952c-.223-1.719.367-3.39 1.753-4.968 2.031-2.311 5.223-3.746 8.33-3.746h30c4.622-.079 10.632 3.733 10.083 8.713l-2.762 21.287h-12.321v-5c-.529-13.268-19.476-13.258-20 0v5h-12.32zm-114.917 56.286c0-8.271 6.729-15 15-15h250c19.905.826 19.889 29.182 0 30h-250c-8.271 0-15-6.728-15-15zm265 407.002h-250c-19.905-.826-19.889-29.182 0-30h250c19.905.826 19.889 29.182 0 30z"/></svg>