<svg id="Layer_1" enable-background="new 0 0 512.182 512.182" height="512" viewBox="0 0 512.182 512.182" width="512" xmlns="http://www.w3.org/2000/svg"><path d="m491.749 146.424c-1.647-3.73-3.975-7.143-6.926-10.094l-1.177-1.177c22.853-29.799 20.651-72.771-6.608-100.031-27.349-27.347-70.511-29.475-100.321-6.384-47.135-40.336-118.357-38.208-162.948 6.383l-178.65 178.65c-44.591 44.591-46.719 115.812-6.384 162.946-23.18 28.857-20.413 74.58 6.385 100.322 25.65 26.7 71.169 29.558 100.031 6.609l1.176 1.176c2.952 2.953 6.366 5.281 10.096 6.928 47.384 31.892 111.223 26.034 151.964-14.712l178.65-178.65c40.608-40.609 46.717-104.345 14.712-151.966zm-330.813 328.218c-4.09.114-7.781-1.275-10.466-3.96l-.714-.714 320.211-320.21.714.714c1.232 1.232 2.194 2.681 2.863 4.282.039.1.079.201.121.3.705 1.808 1.042 3.8.975 5.883-.14 4.309-1.96 8.427-5.128 11.594-10.952 10.952-13.4 21.019-15.368 29.108-1.728 7.099-3.091 12.706-10.077 19.691-6.986 6.986-12.594 8.351-19.692 10.077-22.38 4.056-40.427 22.128-44.477 44.477-1.727 7.099-3.091 12.706-10.077 19.692s-12.594 8.351-19.692 10.077c-22.404 4.068-40.42 22.129-44.476 44.476-1.727 7.1-3.091 12.707-10.077 19.692-6.986 6.986-12.594 8.351-19.692 10.077-22.405 4.069-40.42 22.129-44.477 44.477-1.727 7.099-3.091 12.706-10.077 19.693-6.985 6.985-12.593 8.35-19.692 10.076-8.089 1.968-18.156 4.416-29.108 15.368-3.168 3.17-7.286 4.99-11.594 5.13zm216.323-417.592c2.684 2.684 4.09 6.4 3.958 10.465-.139 4.309-1.96 8.427-5.128 11.594-10.952 10.952-13.4 21.02-15.368 29.108-1.727 7.099-3.091 12.706-10.077 19.693-6.985 6.985-12.593 8.35-19.692 10.076-22.405 4.068-40.42 22.129-44.476 44.477-1.727 7.099-3.091 12.706-10.077 19.692-6.986 6.987-12.594 8.351-19.692 10.077-8.089 1.968-18.156 4.416-29.108 15.367-10.952 10.952-13.4 21.02-15.367 29.108-1.727 7.1-3.091 12.707-10.076 19.693-6.986 6.986-12.594 8.35-19.693 10.076-8.089 1.968-18.156 4.416-29.107 15.368-10.953 10.952-13.401 21.019-15.369 29.107-1.727 7.1-3.091 12.707-10.077 19.692-6.986 6.986-12.593 8.351-19.692 10.077-8.089 1.968-18.156 4.417-29.108 15.369-3.167 3.168-7.284 4.988-11.593 5.128-4.093.112-7.782-1.275-10.467-3.961l-.713-.713 320.21-320.21zm-327.997 170.863 178.649-178.649c36.642-36.643 94.859-38.882 134.139-6.72l-319.508 319.509c-32.162-39.281-29.922-97.498 6.72-134.14zm39.64 251.323c-15.025 0-29.104-5.803-39.64-16.34-19.445-19.445-21.591-49.737-6.438-71.577l.082.082c6.614 6.642 15.701 10.132 25.253 9.808 9.406-.304 18.316-4.201 25.091-10.975 6.986-6.987 12.594-8.352 19.693-10.078 8.089-1.968 18.155-4.417 29.107-15.368 10.952-10.952 13.4-21.019 15.368-29.107 1.727-7.1 3.091-12.707 10.077-19.693s12.594-8.35 19.692-10.076c8.089-1.968 18.156-4.416 29.108-15.367 10.952-10.953 13.4-21.021 15.367-29.109 1.727-7.099 3.091-12.706 10.076-19.692 6.986-6.986 12.594-8.35 19.693-10.076 22.405-4.069 40.421-22.129 44.477-44.477 1.727-7.099 3.091-12.706 10.077-19.692 6.985-6.986 12.593-8.351 19.692-10.077 22.405-4.068 40.42-22.129 44.476-44.477 1.727-7.099 3.091-12.706 10.077-19.692 13.743-13.136 14.953-37.075 1.17-50.343l-.083-.083c22.061-15.265 52.265-12.871 71.576 6.439l7.071-7.07-7.071 7.071c21.857 21.857 21.857 57.422 0 79.279l-334.352 334.351c-10.536 10.537-24.613 16.339-39.639 16.339zm373.993-194.989-178.65 178.65c-27.145 27.144-66.693 35.792-101.767 24.387 1.471-1.096 2.872-2.307 4.193-3.627 6.986-6.986 12.594-8.351 19.692-10.077 22.38-4.056 40.428-22.129 44.477-44.477 1.727-7.099 3.091-12.706 10.077-19.692s12.594-8.351 19.692-10.077c22.404-4.068 40.421-22.128 44.477-44.476 1.727-7.1 3.091-12.707 10.077-19.692 6.985-6.986 12.593-8.351 19.691-10.077 22.405-4.069 40.421-22.129 44.477-44.477 1.727-7.099 3.091-12.706 10.077-19.692 6.985-6.986 12.593-8.351 19.692-10.077 8.089-1.968 18.156-4.416 29.108-15.368 10.951-10.952 13.399-21.019 15.367-29.107 1.728-7.099 3.091-12.706 10.078-19.693 1.32-1.32 2.531-2.722 3.627-4.193 11.407 35.073 2.76 74.62-24.385 101.765z"/></svg>