<svg id="Layer_1" enable-background="new 0 0 512.001 512.001" height="512" viewBox="0 0 512.001 512.001" width="512" xmlns="http://www.w3.org/2000/svg"><g><path d="m335.891 311.169c-1.717-26.026-23.437-46.675-49.89-46.675h-60.001c-26.453 0-48.173 20.649-49.89 46.675-26.599 9.375-26.655 47.144-.11 56.611v11.714c0 16.542 13.458 30 30 30h100c16.542 0 30-13.458 30-30v-11.714c26.562-9.476 26.473-47.247-.109-56.611zm-109.891-26.675h60.001c14.838 0 27.195 10.83 29.583 25h-119.167c2.388-14.171 14.745-25 29.583-25zm80 105h-100c-5.514 0-10-4.486-10-10v-10h120v10c0 5.514-4.485 10-10 10zm20.001-40h-140c-13.27-.551-13.26-19.454 0-20h140c13.269.551 13.259 19.454 0 20z"/><path d="m512.001 187.344v-35.143c0-1.557-.363-3.092-1.062-4.484l-44.939-89.585v-27.632c0-16.542-13.458-29.999-30-29.999h-360c-16.542 0-30 13.457-30 29.999v27.632l-44.938 89.585c-.699 1.392-1.062 2.927-1.062 4.484v35.143c0 21.457 15.047 39.464 35.143 44.026v210.131h-5.143c-16.542 0-30 13.458-30 30v30c0 5.522 4.477 10 10 10h492c5.523 0 10-4.478 10-10v-30c0-16.542-13.458-30-30-30h-5.142v-210.131c20.096-4.562 35.143-22.569 35.143-44.026zm-45.143 25.143c-13.855 0-25.134-11.272-25.143-25.127 0-.005 0-.011 0-.017v-25.143h50.286v25.143c0 13.865-11.279 25.144-25.143 25.144zm-404.686-141.987h36.805l-25.727 71.701h-47.046zm387.658 0 35.967 71.701h-47.046l-25.726-71.701zm-58.054 0 25.727 71.701h-47.998l-15.436-71.701zm-58.165 0 15.436 71.701h-48.596l-5.145-71.701zm-58.357 0 5.146 71.701h-48.798l5.146-71.701zm-63.704 71.701h-48.596l15.436-71.701h38.305zm-69.054 0h-47.997l25.726-71.701h37.707zm-52.21 20h50.286v25.143c-1.385 33.365-48.913 33.339-50.286 0zm70.286 0h50.286v25.143c-1.385 33.365-48.913 33.339-50.286 0zm70.286 0h50.285v25.143c0 .02.001.04.001.06-1.464 33.32-48.916 33.244-50.285-.06v-25.143zm70.285 0h50.286v25.143.025c-1.414 33.328-48.872 33.305-50.285.006 0-.023-.001-.047-.001-.07zm70.286 0h50.286v25.143.017c-1.413 33.374-48.958 33.302-50.286-.055zm-305.429-131.701c0-5.514 4.486-9.999 10-9.999h360c5.514 0 10 4.485 10 9.999v20h-380zm-46 156.844v-25.143h50.286v25.143c-1.385 33.364-48.913 33.338-50.286 0zm472 284.157v20h-472v-20c0-5.514 4.486-10 10-10h452c5.515 0 10 4.486 10 10zm-436.857-30v-210.13c10.067-2.285 18.867-7.945 25.144-15.722 17.495 22.321 52.799 22.312 70.286 0 17.495 22.321 52.799 22.312 70.286 0 17.5 22.323 52.793 22.312 70.286-.008 17.5 22.329 52.794 22.322 70.286.008 17.498 22.322 52.796 22.312 70.286-.004 6.277 7.777 15.077 13.438 25.143 15.725v210.131z"/></g></svg>