<svg id="Layer_1" enable-background="new 0 0 512.002 512.002" height="512" viewBox="0 0 512.002 512.002" width="512" xmlns="http://www.w3.org/2000/svg"><g><path d="m467.231 372.002c0-13.5-5.591-26.114-14.739-35.294 19.514-12.503 19.547-41.815.074-54.364 29.635-29.656 10.226-85.147-18.181-108.542-20.048-17.283-47.448-26.801-77.154-26.801h-91.3v-27.566l118.801-48.807c8.2-3.294 8.199-15.206.001-18.499l-125-51.379c-3.084-1.268-6.599-.914-9.369.941-2.771 1.857-4.433 4.973-4.433 8.308v137.002h-91.3c-58.693-.948-110.738 40.124-109.999 100.001-.001 13.786 5.608 26.287 14.664 35.341-19.485 12.559-19.43 41.876.081 54.368-21.638 21.014-18.766 57.825 5.286 75.29-12.155 9.13-20.032 23.662-20.032 39.999v10.001c0 27.57 22.43 50 50 50h322.6c27.57 0 50-22.43 50-50v-10.001c0-16.337-7.877-30.869-20.032-39.999 12.155-9.129 20.032-23.661 20.032-39.999zm-201.3-347.08 88.691 36.455-88.691 36.437zm-111.3 142.08h202.601c52.149 0 90 33.645 90 79.999 0 16.543-13.458 30.001-30 30.001h-322.6c-16.542 0-30-13.458-30-30 0-46.356 37.85-80 89.999-80zm280.1 130c16.583.688 16.577 24.316 0 25-13.762 0-21.543 5.053-27.796 9.113-5.263 3.418-9.066 5.887-16.904 5.887-7.837 0-11.641-2.469-16.904-5.887-16.53-12.177-39.105-12.147-55.592 0-5.264 3.418-9.066 5.887-16.904 5.887s-11.641-2.469-16.904-5.887c-16.53-12.177-39.105-12.147-55.591 0-5.264 3.418-9.066 5.887-16.904 5.887s-11.641-2.469-16.904-5.887c-16.53-12.177-39.105-12.147-55.592 0-5.263 3.418-9.066 5.887-16.904 5.887s-11.641-2.469-16.904-5.887c-6.252-4.061-14.034-9.113-27.796-9.113-16.581-.686-16.578-24.316 0-25zm-171.729 136.799c-3.684 3.848-10.458 3.848-14.142 0l-90.574-90.573c2.299-.779 4.906-1.227 8.244-1.227 7.838 0 11.641 2.469 16.904 5.887 16.53 12.177 39.105 12.147 55.592 0 5.263-3.418 9.066-5.887 16.904-5.887s11.641 2.469 16.904 5.887c16.53 12.177 39.105 12.147 55.592 0 5.264-3.418 9.066-5.887 16.904-5.887 3.339 0 5.945.448 8.244 1.227zm-168.371-31.799c-34.425-.82-41.33-47.653-8.885-58.644 2.932 1.053 5.389 2.647 8.289 4.531 11.671 8.676 29.836 12.612 46.055 5.428l48.685 48.685zm352.6 60c0 16.542-13.458 30-30 30h-322.6c-16.542 0-30-13.458-30-30v-10.001c0-16.541 13.458-29.999 30-29.999h114.144l25.943 25.942c11.128 11.606 31.3 11.606 42.427 0l25.943-25.942h114.144c16.542 0 30 13.458 30 29.999v10.001zm-29.999-60h-94.144l48.685-48.685c16.248 7.194 34.408 3.229 46.055-5.428 2.9-1.883 5.356-3.478 8.289-4.531 32.469 10.99 25.514 57.837-8.885 58.644z"/><path d="m195.935 212.002c13.268-.528 13.258-19.476 0-20h-.007c-13.269.53-13.251 19.478.007 20z"/><path d="m315.935 212.002c13.268-.528 13.258-19.476 0-20h-.007c-13.268.53-13.251 19.478.007 20z"/><path d="m135.935 252.001c13.268-.528 13.258-19.476 0-20h-.007c-13.268.53-13.251 19.478.007 20z"/><path d="m255.935 252.001c13.268-.528 13.258-19.476 0-20h-.007c-13.269.53-13.251 19.478.007 20z"/><path d="m375.935 252.001c13.268-.528 13.258-19.476 0-20h-.007c-13.269.53-13.251 19.478.007 20z"/></g></svg>