<svg id="Layer_1" enable-background="new 0 0 512 512" height="512" viewBox="0 0 512 512" width="512" xmlns="http://www.w3.org/2000/svg"><path d="m396 256h-10.137c-1.722-61.013-19.366-78.815-36.542-95.84-2.231-35.195-22.044-53.043-31.463-59.603-4.271-32.262-17.713-73.904-56.425-98.953-2.552-1.651-5.715-2.051-8.598-1.091-2.882.962-5.171 3.183-6.22 6.034-5.231 14.221-18.707 29.229-31.739 43.741-22.625 25.196-48.031 53.487-36.005 85.383-16.003 13.372-27.788 38.243-23.519 70.417-17.664 9.4-27.038 25.552-28.973 49.911h-10.379c-5.523 0-10 4.478-10 10v40c0 27.57 22.43 50 50 50h10.575l19.512 147.313c.659 4.972 4.898 8.687 9.914 8.687h120c5.016 0 9.255-3.715 9.913-8.687l19.511-147.312h10.575c27.57 0 50-22.43 50-50v-40c0-5.523-4.478-10-10-10zm-166.244-192.349c11.088-12.348 22.468-25.021 30.076-38.404 24.817 20.884 34.468 51.513 37.982 76.367-24.715 10.796-74.61 13.293-101.1 24.066-4.595-18.218 9.952-36.316 33.042-62.029zm-33.373 84.077c12.878-7.033 35.531-11.032 57.44-14.9 22.389-3.952 42.232-7.456 54.751-14.323 6.683 5.251 18.588 17.737 20.645 41.081-35.626 23.531-109.262 27.347-154.491 39.368-1.881-25.481 9.157-44.04 21.655-51.226zm-26.374 73.636c14.088-5.175 35.857-8.857 58.904-12.755 38.551-6.52 81.807-13.837 109.448-31.133 14.238 14.361 26.104 29.583 27.502 78.523h-219.42c2.303-24.293 13.232-30.675 23.566-34.635zm137.228 270.636h-102.474l-18.013-136h138.501zm78.763-186c0 16.542-13.458 30-30 30h-200c-16.542 0-30-13.458-30-30v-30h260z"/></svg>