<svg id="Layer_1" enable-background="new 0 0 512.002 512.002" height="512" viewBox="0 0 512.002 512.002" width="512" xmlns="http://www.w3.org/2000/svg"><g><path d="m476.001 256.001c0-73.834-57.453-134.502-130-139.646v-86.355c0-16.542-13.458-30-29.999-30h-250.001c-16.542 0-30 13.458-30 30v452.002c0 16.542 13.458 30 30 30h250.001c16.541 0 29.999-13.458 29.999-30v-86.355c72.547-5.144 130-65.812 130-139.646zm-261.647 69.33c-3.383 12.607-6.765 25.216-10.149 37.848-4.168 14.832 10.095 28.767 24.808 24.562 12.551-3.363 25.101-6.73 37.651-10.098 18.172 10.375 38.443 16.514 59.338 18.003v46.357h-270v-372.003h66.715c4.127 11.641 15.248 20 28.285 20h80.001c13.037 0 24.158-8.359 28.285-20h66.714v46.355c-101.047 6.088-163.106 120.901-111.648 208.976zm-148.353-305.331h250.001c5.514 0 9.999 4.486 9.999 10v20h-75c-5.522 0-10 4.478-10 10 0 5.514-4.485 10-9.999 10h-80.001c-5.514 0-9.999-4.486-9.999-10 0-5.522-4.478-10-10-10h-75.001v-20c0-5.514 4.486-10 10-10zm250.001 472.002h-250.001c-5.514 0-10-4.486-10-10v-20h270v20c0 5.514-4.485 10-9.999 10zm19.999-116.001c-22.172 0-43.832-6.097-62.639-17.631-2.344-1.439-5.181-1.844-7.82-1.134l-2.331.625c-13.141 3.526-26.281 7.052-39.423 10.573-.042.012-.094.035-.136.048-.047-.015-.128-.087-.126-.142 3.744-13.973 7.489-27.93 11.234-41.889.712-2.651.302-5.479-1.134-7.82-49.059-78.508 9.683-183.44 102.375-182.63 159.189 6.588 159.157 233.43 0 240z"/><path d="m415.891 230.176c-1.717-26.026-23.437-46.675-49.889-46.675h-60.001c-26.453 0-48.173 20.649-49.89 46.675-26.599 9.375-26.655 47.144-.11 56.611v11.714c0 16.542 13.458 30 30 30h100c16.542 0 30-13.458 30-30v-11.713c26.562-9.477 26.473-47.248-.11-56.612zm-109.89-26.675h60.001c14.838 0 27.195 10.83 29.582 25h-119.166c2.387-14.17 14.744-25 29.583-25zm80 105h-100c-5.514 0-10-4.486-10-10v-10h120v10c0 5.514-4.486 10-10 10zm20.001-40h-140c-13.271-.551-13.261-19.454 0-20h140c13.268.551 13.258 19.454 0 20z"/></g></svg>