<svg id="Layer_1" enable-background="new 0 0 512.002 512.002" height="512" viewBox="0 0 512.002 512.002" width="512" xmlns="http://www.w3.org/2000/svg"><path d="m425.951 99.005-5-50c-.511-5.112-4.812-9.005-9.95-9.005h-46.172l-3.905-31.24c-.626-5.004-4.88-8.76-9.923-8.76h-190c-5.043 0-9.297 3.756-9.923 8.76l-3.905 31.24h-46.172c-5.138 0-9.439 3.893-9.95 9.005l-5 50c-.281 2.812.64 5.61 2.535 7.705 1.896 2.095 4.59 3.29 7.415 3.29h10.718l29.309 392.746c.39 5.22 4.738 9.256 9.973 9.256h220c5.234 0 9.583-4.036 9.973-9.256l29.309-392.746h10.718c2.825 0 5.519-1.195 7.415-3.29s2.816-4.894 2.535-7.705zm-315.9-39.005h71.95c13.268-.529 13.258-19.476 0-20h-14.672l2.5-20h172.344l2.5 20h-68.172c-13.268.529-13.258 19.476 0 20h125.45l3 30h-297.9zm155.95 432.002v-106.586c15.167-1.785 29.124-7.579 40.781-16.291l-4.697 122.877zm-56.083 0-4.698-122.877c11.657 8.712 25.614 14.506 40.781 16.291v106.586zm111.083-191.001c0 35.841-29.159 65-65 65-86.23-3.57-86.205-126.443 0-130 35.841 0 65 29.159 65 65zm-75-84.415c-17.426 2.051-33.255 9.395-45.833 20.375l-4.854-126.961h50.687zm65.834 20.375c-12.578-10.98-28.408-18.324-45.834-20.375v-106.586h50.687zm-185.059-126.961h48.523l5.769 150.904c-14.455 25.488-12.992 61.631 3.279 85.777l5.556 145.322h-34.62zm229.944 382.002h-34.62l5.555-145.32c16.273-24.145 17.735-60.291 3.28-85.778l5.768-150.904h48.523z"/></svg>