<svg id="Layer_1" enable-background="new 0 0 511.715 511.715" height="512" viewBox="0 0 511.715 511.715" width="512" xmlns="http://www.w3.org/2000/svg"><g><path d="m485.405 224.97c41.782-31.82 32.186-101.319-17.353-119.995 8.884-33.405-11.031-71.118-43.925-82.388-34.638-13.56-76.782 5.655-89.383 40.53-3.051-.487-6.157-.775-9.304-.855-1.654-15.217-8.215-29.363-19.012-40.652-40.86-42.866-113.734-18.015-120.154 40.652-3.146.08-6.252.369-9.303.856-6.347-16.51-18.454-29.778-34.468-37.643-17.3-8.495-36.803-9.522-54.915-2.888-32.894 11.268-52.81 48.986-43.926 82.388-49.557 18.686-59.119 88.19-17.353 119.995-13.705 13.417-20.643 30.26-19.763 48.58 1.243 25.87 18.627 51.076 45.369 65.78 41.01 22.549 125.857 69.204 143.972 114.605 5.24 77.027 114.727 76.968 119.938 0 18.115-45.401 102.962-92.055 143.972-114.605 26.742-14.704 44.126-39.91 45.369-65.78.882-18.32-6.056-35.163-19.761-48.58zm-423.853 96.835c-36.963-19.829-49.971-64.971-12.535-89.64 2.943-2.009 4.596-5.431 4.337-8.984-.258-3.554-2.387-6.702-5.589-8.264-42.174-21.005-35.387-82.79 10.798-93.683 2.872-.661 5.307-2.555 6.654-5.177 1.347-2.621 1.468-5.704.333-8.424-11.261-25.365 2.646-57.296 28.917-66.268 12.938-4.737 26.866-4.006 39.219 2.061 11.05 5.427 19.497 14.456 24.149 25.698-36.42 16.887-50.994 66.368-29.126 99.842-46.751 20.586-48.759 78.957-15.291 116.191 31.334 35.947 64.315 77.23 77.017 125.614-29.7-31.764-78.547-61.289-128.883-88.966zm194.305 170.204c-22.005 0-39.916-17.862-39.999-39.848.002-.137.002-.274-.002-.412-.106-73.48-45.144-131.3-87.363-179.734-27.887-31.33-24.576-78.196 19.062-88.481 7.334-1.725 10.07-11.286 4.757-16.627-17.977-18.695-16.127-41.81-8.401-57.208 7.231-15.775 27.704-30.707 50.762-27.045 2.921.372 5.861-.574 8.028-2.571 2.166-1.999 3.34-4.852 3.209-7.796-.615-13.799 4.296-26.888 13.829-36.854 18.686-20.431 53.548-20.43 72.234 0 9.533 9.967 14.444 23.056 13.829 36.854-.131 2.944 1.043 5.797 3.209 7.796 2.167 1.998 5.106 2.944 8.028 2.571 47.084-5.663 74.752 50.006 42.362 84.253-5.313 5.33-2.576 14.912 4.756 16.627 18.167 4.593 30.279 15.044 35.026 30.222 5.671 18.134-.446 40.457-15.964 58.26-42.219 48.434-87.257 106.253-87.363 179.734-.004.138-.004.275-.002.412-.081 21.985-17.992 39.847-39.997 39.847zm229.333-219.419c-.912 18.978-14.334 37.836-35.029 49.215-50.336 27.678-99.183 57.203-128.882 88.968 12.702-48.384 45.683-89.667 77.017-125.614 20.053-23.006 27.707-52.652 19.977-77.372-5.475-17.504-17.782-30.934-35.267-38.819 21.872-33.479 7.285-82.961-29.126-99.844 9.468-24.201 39.065-37.262 63.367-27.757 26.273 8.972 40.177 40.903 28.917 66.268-1.136 2.72-1.014 5.803.333 8.424 1.347 2.622 3.782 4.516 6.654 5.177 25.337 5.826 36.43 25.957 38.364 42.854 1.958 17.115-4.255 39.456-27.566 50.828-3.202 1.562-5.332 4.71-5.589 8.264-.258 3.554 1.395 6.976 4.337 8.984 15.479 10.56 23.257 24.539 22.493 40.424z"/><path d="m346.937 233.486c-3.577-4.208-9.888-4.72-14.096-1.143l-66.985 56.938v-96.113l51.813-44.041c4.208-3.576 4.72-9.888 1.143-14.096-3.578-4.208-9.888-4.72-14.096-1.143l-38.86 33.031v-94.187c-.529-13.268-19.476-13.258-20 0v94.187l-38.859-33.031c-4.207-3.577-10.519-3.065-14.096 1.143s-3.065 10.52 1.143 14.096l51.812 44.041v96.113l-66.985-56.938c-4.207-3.578-10.519-3.065-14.096 1.143s-3.065 10.519 1.143 14.096l79.938 67.948v136.479c.529 13.268 19.476 13.258 20 0v-136.479l79.938-67.948c4.209-3.577 4.721-9.888 1.143-14.096z"/></g></svg>