<svg id="Layer_1" enable-background="new 0 0 512.002 512.002" height="512" viewBox="0 0 512.002 512.002" width="512" xmlns="http://www.w3.org/2000/svg"><g><path d="m341.595 180.991c-11.814-25.26-24.007-51.328-25.452-100.993 5.457-.076 9.858-4.523 9.858-9.998v-40c0-16.542-13.458-30-30.001-30h-80c-16.542 0-30 13.458-30 30v40c0 5.475 4.401 9.922 9.857 9.998-1.445 49.665-13.638 75.733-25.452 100.993-11.997 25.655-24.405 52.183-24.405 100.14v200.871c0 16.542 13.458 30 30 30h160.001c16.542 0 30-13.458 30-30v-200.871c0-47.957-12.407-74.485-24.406-100.14zm-175.595 103.097h180.001v157.914h-180.001zm49.864-204.088h80.273c.413 14.875 1.742 27.872 3.705 39.438-21.819 4.529-40.482 1.941-57.148-.368-10.392-1.441-20.389-2.826-30.093-2.335 1.72-10.88 2.882-23.007 3.263-36.735zm-9.864-50c0-5.514 4.486-10 10-10h80c5.515 0 10.001 4.486 10.001 10v30h-100.001zm-17.477 159.465c6.99-14.944 14.485-30.971 19.879-52.208 9.047-1.496 19.581-.036 31.547 1.623 10.328 1.432 21.995 3.049 35.021 3.048 9.036 0 18.728-.779 29.077-2.937 13.129 50.053 37.125 69.173 41.347 125.097h-178.786c2.448-33 11.944-53.303 21.915-74.623zm147.478 302.537h-160.001c-5.514 0-10-4.486-10-10v-20h180.001v20c0 5.514-4.486 10-10 10z"/><path d="m314.594 311.246c-4.786-2.741-10.896-1.083-13.646 3.7-.733 1.276-2.495 4.089-4.62 6.89-5.923-2.958-12.383-3.966-19.077-2.927-18.113 2.818-33.768 19.889-42.378 34.924v.001c-11.479 20.047-20.513 27.897-33.329 28.964-4.047.337-7.488 3.089-8.708 6.962-1.22 3.874.024 8.101 3.147 10.696 10.348 8.596 23.407 14.062 36.772 15.388 16.198 1.545 31.833-2.615 46.523-11.962 28.082-18.001 35.188-35.822 36.205-47.603.645-7.477-.948-14.673-4.465-20.757 4.024-5.012 6.867-9.908 7.287-10.643 2.74-4.791 1.077-10.889-3.711-13.633zm-19.035 43.315c-.516 5.981-4.719 18.155-27.071 32.483-15.085 9.669-29.674 10.719-41.708 7.404 10.873-7.414 18.664-18.824 25.45-30.676 6.276-10.961 17.746-23.49 28.097-25.101 3.964-.62 7.423.576 10.888 3.753 1.501 1.379 4.933 5.319 4.344 12.137z"/></g></svg>