<svg id="Layer_1" enable-background="new 0 0 512.341 512.341" height="512" viewBox="0 0 512.341 512.341" width="512"
     xmlns="http://www.w3.org/2000/svg">
    <g>
        <path d="m503.759 138.115c-16.078-50.182-53.581-89.935-102.894-109.064-47.434-18.401-99.778-15.058-144.517 9.038-131.372-69.842-280.787 45.065-252.973 190.296 9.207 54.133 39.235 103.937 77.182 147.188 31.013 35.395 99.666 99.626 160.263 115.862l12.941 3.468c1.695.455 3.481.455 5.176 0l12.942-3.468c60.596-16.237 129.249-80.468 160.262-115.861 18.244-20.823 33.661-42.061 45.82-63.122 31.272-53.889 44.452-116.514 25.798-174.337zm-43.119 164.337c-39.909 68.245-123.029 148.316-193.938 169.665l-10.354 2.774-10.354-2.774c-48.977-13.123-110.826-64.564-150.396-109.725-54.732-59.61-92.256-146.352-67.612-218.175 28.616-92.339 139.858-135.772 223.337-86.024 3.107 1.807 6.943 1.807 10.051 0 40.528-23.554 88.734-27.38 132.259-10.495 102.376 40.407 124.89 160.13 67.007 254.754z"/>
        <path d="m413.716 93.07c-23.221-17.817-51.956-26.944-80.919-25.698-28.203 1.214-54.448 11.937-76.448 31.135-22-19.198-48.245-29.921-76.448-31.135-61.411-3.489-119.384 43.762-127.884 105.188-12.157 81.69 48.172 160.004 112.703 215.989 32.714 28.001 66.001 48.404 89.042 54.578 1.695.455 3.481.455 5.176 0 59.259-16.933 144.967-99.451 175.712-155.679 39.847-67.47 39.561-146.803-20.934-194.378zm3.613 184.379c-28.162 51.58-106.605 127.557-160.98 145.608-20.028-6.248-49.793-25.025-78.623-49.702-88.27-73.005-152.861-193.944-66.567-264.419 40.755-30.676 97.941-30.529 138.118 10.324 3.906 3.904 10.236 3.904 14.143 0 45.217-45.217 103.293-37.045 138.12-10.322 36.149 27.738 61.974 88.514 15.789 168.511z"/>
        <path d="m336.238 219.54c-1.717-26.026-23.437-46.675-49.89-46.675h-60.001c-26.452 0-48.172 20.649-49.889 46.675-26.599 9.375-26.655 47.144-.11 56.611v11.714c0 16.542 13.458 30 30 30h100c16.542 0 30-13.458 30-30v-11.714c26.562-9.478 26.473-47.247-.11-56.611zm-109.891-26.676h60.001c14.839 0 27.196 10.83 29.583 25h-119.166c2.388-14.17 14.744-25 29.582-25zm80.001 105h-100c-5.514 0-10-4.486-10-10v-10h120v10c0 5.514-4.486 10-10 10zm20-40h-140c-13.27-.551-13.259-19.454 0-20h140c13.27.552 13.26 19.454 0 20z"/>
    </g>
</svg>